<svg id="Capa_1" data-name="Capa 1" xmlns="http://www.w3.org/2000/svg" viewBox="0 0 583.4 644.44"><title>Mesa de trabajo 86</title><polygon points="497.43 620.81 129.59 620.81 129.59 146.4 177.79 70.12 497.43 70.12 497.43 620.81" fill="#ccf"/><rect x="167.29" y="578.97" width="219.42" height="4.68" fill="#fff"/><polygon points="129.59 146.4 179.09 146.4 179.09 70.12 129.59 146.4" fill="#161730"/><rect x="168.39" y="152.69" width="190.82" height="4.28" fill="#fff"/><rect x="168.55" y="175.5" width="293.42" height="4.99" fill="#fff"/><rect x="168.58" y="189.38" width="219.42" height="4.68" fill="#fff"/><rect x="168.58" y="203.28" width="219.42" height="4.68" fill="#fff"/><rect x="168.58" y="217.67" width="285.68" height="4.24" fill="#fff"/><rect x="168.58" y="231.09" width="219.42" height="4.68" fill="#fff"/><rect x="168.58" y="244.99" width="219.42" height="4.68" fill="#fff"/><rect x="168.58" y="258.89" width="219.42" height="4.68" fill="#fff"/><rect x="168.58" y="273.28" width="285.68" height="4.24" fill="#fff"/><rect x="168.58" y="286.69" width="219.42" height="4.68" fill="#fff"/><rect x="168.58" y="299.88" width="219.42" height="4.68" fill="#fff"/><rect x="168.58" y="313.78" width="219.42" height="4.68" fill="#fff"/><rect x="168.58" y="328.17" width="285.68" height="4.24" fill="#fff"/><rect x="168.58" y="341.58" width="219.42" height="4.68" fill="#fff"/><rect x="168.58" y="355.48" width="219.42" height="4.68" fill="#fff"/><rect x="168.58" y="369.38" width="219.42" height="4.68" fill="#fff"/><rect x="168.58" y="383.77" width="285.68" height="4.24" fill="#fff"/><rect x="168.58" y="397.19" width="219.42" height="4.68" fill="#fff"/><path d="M138,292.38a.86.86,0,0,1,0,.16l-.08-.16Z" fill="#fe4877"/><polygon points="226.67 402.94 211.9 428.65 126.35 379.02 141.12 353.31 226.67 402.94" fill="#ffcb39"/><polygon points="102.62 557.76 130.38 560.5 127.98 605.21 103.45 603.76 102.62 557.76" fill="#fd925a"/><path d="M101.9,622.49l64.77-.09h0c.11-7.63-8.73-10.44-16.29-11.19L128,605.06l.92-16.1-25.64-1.56Z" fill="#161730"/><path d="M154.75,611.88s-6.32,9.5-4.68,10.54,16.6,0,16.6,0S167.9,614.54,154.75,611.88Z" fill="#fe4877"/><path d="M102.75,587.92S114,593,112.32,599s-3.6,16.82,1.59,18.18,3,5.28,3,5.28l-15,0Z" fill="#fe4877"/><polygon points="122.2 612.37 121.76 611.77 129.02 606.29 129.47 606.89 122.2 612.37" fill="#ffcb39"/><polygon points="130.87 615.74 130.37 615.18 136.83 609.34 137.33 609.9 130.87 615.74" fill="#ffcb39"/><polygon points="140.4 616.08 139.83 615.59 144.99 609.57 145.56 610.05 140.4 616.08" fill="#ffcb39"/><path d="M133.33,563.68l-35.49-.54s-7.64-10.16-1.79-22,1-22-2-32-4.66-21.24.6-30.37,1.39-20.93-.39-27.92,1.51-19.35,1.51-19.35l44.42,14s3.12,43.36-1.52,51.88-3.9,27.94-3.16,36.4S140.18,553.87,133.33,563.68Z" fill="#161730"/><polygon points="194.44 551.75 219.87 540.22 239.97 580.18 217.98 591.21 194.44 551.75" fill="#fd925a"/><path d="M225.93,608.22,282,575.7h0c-3.69-6.67-12.74-4.68-19.67-1.54L239.9,580l-7.19-14.41-23,11.48Z" fill="#161730"/><path d="M266.48,572.55S265.72,584,267.65,584,282,575.7,282,575.7,279.2,568.27,266.48,572.55Z" fill="#fe4877"/><path d="M209.52,577.83s12.29-1.27,13.8,4.81,5.22,16.4,10.39,15,5.21,3.08,5.21,3.08l-13,7.53Z" fill="#fe4877"/><polygon points="238.51 589.28 237.83 588.99 241.41 580.6 242.09 580.89 238.51 589.28" fill="#ffcb39"/><polygon points="247.7 587.86 246.99 587.63 249.69 579.33 250.4 579.56 247.7 587.86" fill="#ffcb39"/><polygon points="256.12 583.38 255.39 583.24 256.87 575.43 257.61 575.58 256.12 583.38" fill="#ffcb39"/><path d="M224,541.5l-31,17.3s-11.65-5-12.47-18.2-10-19.52-17.61-26.74-14.57-16.08-14.54-26.63-9.18-18.83-14.19-24-8.29-17.53-8.29-17.53l45.43-10.15s24.22,36,24.42,45.73,10.48,26.18,15.33,33.14S225.07,529.56,224,541.5Z" fill="#161730"/><path d="M179.06,436.11c0,5.25-.07,9.47-.16,12.18-.07,2.16-.14,3.36-.14,3.36l-11.1.78-29.82,2.08-17.1,1.2-26.5,1.85L83,458.33c-.26-.05-.35-1.42-.33-3.64s.16-5.16.36-8.51c.66-11.36,2.07-27,2.41-29.52.2-1.43.4-2.88.62-4.35.85-5.93,1.84-12.12,3-18.28q1-5.2,2.13-10.36c4.45-19.8,10.94-38.25,20.83-47.37a25.9,25.9,0,0,1,3.58-2.78,17.61,17.61,0,0,1,1.83-1,27.21,27.21,0,0,1,6.1-2.18l.73-.18a35.66,35.66,0,0,1,11.94-.5,24.88,24.88,0,0,1,6.74,1.8c.22.09.45.19.68.31.63.31,1.22.79,1.82,1a27.82,27.82,0,0,1,7.83,4.53c.39.3.76.63,1.14,1,11.81,10.49,18.06,31.07,21.29,51.85A317.52,317.52,0,0,1,179.06,436.11Z" fill="#fe4877"/><path d="M148.86,298.57l.78,15.34a10.15,10.15,0,0,1-9.59,10.68l-.58.12c0,.62.07,1.25.1,1.87.07,1.52.15,3,.22,4.54.06,1,.5,2.08,0,3a5.8,5.8,0,0,1-2.3,1.83c-2.41,1.2-7.88,1.45-8.08-2.43l-.65-12.69-2.35-21.09Z" fill="#fd925a"/><path d="M148.54,303.15c1.45-.07,5.11,7.58,5.11,7.58l-4.71.24Z" fill="#ff534a"/><ellipse cx="139.91" cy="312" rx="3.63" ry="3.65" fill="#ff534a"/><path d="M141.87,304.66a.45.45,0,0,1,.1-.14,1.36,1.36,0,0,1,.7-.34c1.12-.3,4-1.16,4.5.5.4,1.33-1.49,1.22-2.48,1.23S141.25,305.93,141.87,304.66Z" fill="#fff"/><path d="M145.23,303.69s-1.11.86.12,2.22c0,0,2.25.21,1.82-1.23A1.53,1.53,0,0,0,145.23,303.69Z" fill="#0c0604"/><path d="M149,317.87a3.07,3.07,0,0,1-3.63-.61l.57-.48c1.13,1.31,2.92.32,3,.28l.37.66Z" fill="#33270a"/><path d="M146.48,301.4s-2.82-1-5.86,2.21C140.62,303.61,146,302.61,146.48,301.4Z" fill="#0c0604"/><path d="M138,292.38a.86.86,0,0,1,0,.16l-.08-.16Z" fill="#fe4877"/><path d="M138,292.38a.86.86,0,0,1,0,.16l-.08-.16Z" fill="#fe4877"/><path d="M101.45,622.09l65.2-.31s.64,7.48-3.17,5.61-4.91.16-6.8.33-3,.19-7-1.38-2.67,1.88-5.68,1.52-5.56-1-8-2.94-4,3.27-6.84,3-1.46-2.61-4.94-3.7-2.2,4.16-4.9,3.76-1.76-4.68-5.87-4.18-2.83,4.68-6,4.26S102.16,629.14,101.45,622.09Z" fill="#6562be"/><path d="M225.42,607.05l56.93-31.95s4.16,6.24-.08,6.44-4.22,2.53-5.79,3.61-2.56,1.62-6.78,2.18-1.44,2.94-4.25,4.08-5.32,1.88-8.42,1.33-1.92,4.8-4.54,6-2.53-1.58-6.11-.84.08,4.71-2.47,5.67-3.79-3.24-7.16-.81-.22,5.48-3.19,6.65S229.44,612.87,225.42,607.05Z" fill="#6562be"/><ellipse cx="181.91" cy="383.13" rx="2.84" ry="2.86" fill="#fe4877"/><ellipse cx="189.72" cy="404.93" rx="6.82" ry="6.85" fill="#fe4877"/><ellipse cx="130.49" cy="309.01" rx="4.17" ry="4.19" fill="#fd925a"/><path d="M131.82,309a3.49,3.49,0,0,1,.42,2.11l-.75-.05a2.41,2.41,0,0,0-.59-2,2.31,2.31,0,0,0-1.72-.43l-.13-.74a3.07,3.07,0,0,1,2.19.49,1.88,1.88,0,0,0,0-1.26.62.62,0,0,0-.27-.29l.2-.72a1.22,1.22,0,0,1,.71.64A2.84,2.84,0,0,1,131.82,309Z" fill="#0c0604"/><path d="M60.24,372.44,69.9,389l24.29-14.28,26-15.3a14.83,14.83,0,0,0-14.93-25.63L60.17,360.34,55.68,363Z" fill="#ffcb39"/><ellipse cx="106.96" cy="344.74" rx="6.11" ry="6.13" fill="#fe4877"/><ellipse cx="97.29" cy="359.88" rx="2.84" ry="2.86" fill="#fe4877"/><ellipse cx="127.69" cy="312.26" rx="5.2" ry="5.23" fill="#ffcb39"/><ellipse cx="127.92" cy="301.56" rx="8.75" ry="8.79" fill="#ffcb39"/><ellipse cx="135.02" cy="291.35" rx="11.82" ry="11.88" fill="#ffcb39"/><ellipse cx="148.97" cy="292.3" rx="9.22" ry="9.27" fill="#ffcb39"/><path d="M18.68,454.79l23,30-7.54,5.83A18.81,18.81,0,0,1,7.69,487.2h0a19,19,0,0,1,3.45-26.59Z" fill="#fe4877"/><polygon points="282.17 248.68 306.4 280.31 47.75 480.28 23.52 448.64 282.17 248.68" fill="#161730"/><polygon points="282.17 248.68 303.7 248.73 313.87 248.76 311.47 258.88 306.4 280.31 282.17 248.68" fill="#ffcb39"/><polygon points="303.7 248.73 313.87 248.76 311.47 258.88 303.7 248.73" fill="#6562be"/><line x1="292.47" y1="266.02" x2="40.94" y2="460.48" fill="none" stroke="#fff" stroke-miterlimit="10" stroke-width="1"/><polygon points="19.71 446.79 49.71 485.96 43.15 491.04 13.15 451.87 19.71 446.79" fill="#6562be"/><polygon points="224.2 368.58 207.57 378.14 182.76 350.25 185.23 348.23 196.24 361.1 198.07 359.36 186.64 344.53 188.16 341.72 200.39 357.17 202.74 354.94 189.73 339.61 191.32 338.61 204.43 353.33 206.63 351.25 193.75 337.53 196.1 335.61 208.35 349.62 208.4 349.57 212.44 353.69 212.75 339.35 215.54 340.86 215.42 357.41 224.2 368.58" fill="#fd925a"/><polygon points="240.27 420.6 211.8 428.55 195.66 370.22 224.13 362.27 240.27 420.6" fill="#ffcb39"/><ellipse cx="212.42" cy="420.85" rx="2.84" ry="2.86" fill="#fe4877"/><ellipse cx="218.9" cy="376.61" rx="6.48" ry="6.51" fill="#fe4877"/><ellipse cx="205.93" cy="395.41" rx="4.58" ry="4.61" fill="#fe4877"/><polygon points="117.1 420.82 104.61 413.88 106.13 419.46 106.05 419.48 111.94 437.17 109.11 438.24 103.79 420.15 100.89 421.01 106.95 439.81 105.29 440.69 98.64 421.68 95.55 422.6 102.7 440.99 99.52 440.89 92.5 423.51 90.09 424.22 95.62 440.26 92.64 441.39 81.13 405.81 97.71 396.18 102.91 409.41 117.21 417.63 117.1 420.82" fill="#fd925a"/><polygon points="55.68 362.99 60.26 372.47 80.33 414.06 106.92 401.11 94.19 374.74 82.08 349.66 60.17 360.34 60.13 360.37 55.68 362.99" fill="#ffcb39"/><ellipse cx="81.13" cy="355.3" rx="3.13" ry="3.15" fill="#fe4877"/><ellipse cx="82.73" cy="385.01" rx="3.13" ry="3.15" fill="#fe4877"/><ellipse cx="70.49" cy="368.3" rx="6.87" ry="6.9" fill="#fe4877"/><ellipse cx="84.26" cy="401.13" rx="5.4" ry="5.42" fill="#fe4877"/><ellipse cx="97.09" cy="392.6" rx="3.11" ry="3.13" fill="#fe4877"/><polyline points="462.18 372.5 511.42 465.18 471.45 600.73" fill="none" stroke="#161730" stroke-miterlimit="10" stroke-width="7.31"/><polyline points="486.56 372.5 535.79 465.18 495.83 600.73" fill="none" stroke="#161730" stroke-miterlimit="10" stroke-width="7.31"/><path d="M461.06,326.95h1.5a21.55,21.55,0,0,1,21.55,21.55V394a6.54,6.54,0,0,1-6.54,6.54H446A6.54,6.54,0,0,1,439.5,394V348.5a21.55,21.55,0,0,1,21.55-21.55Z" transform="translate(658.99 -190.06) rotate(71.37)" fill="#161730"/><path d="M412.4,337.23h0a64,64,0,0,1,64,64v22.3a0,0,0,0,1,0,0h-128a0,0,0,0,1,0,0v-22.3a64,64,0,0,1,64-64Z" transform="translate(641.14 -131.91) rotate(71.37)" fill="#fe4877"/><path d="M472.61,567.71h23.75a50.4,50.4,0,0,1,50.4,50.4v0a0,0,0,0,1,0,0H422.21a0,0,0,0,1,0,0v0A50.4,50.4,0,0,1,472.61,567.71Z" fill="#fe4877"/><rect x="417" y="611.16" width="134.97" height="12.74" fill="#161730"/><polygon points="507.56 465.57 540 464.41 532.08 491.25 498.67 494.92 507.56 465.57" fill="#161730"/></svg>