<svg id="Capa_1" data-name="Capa 1" xmlns="http://www.w3.org/2000/svg" viewBox="0 0 411 430"><title>Mesa de trabajo 1</title><polygon points="255.97 77.18 255.98 77.19 237.74 90.88 237.73 90.87 226.6 100.91 207.28 118.34 185.2 138.24 173.32 148.96 155.11 125.53 167 116.68 188.06 101 207.4 86.61 221.31 76.26 224.7 73.73 232.93 66.34 235.97 47.91 239.39 46.76 236.99 62.78 236.97 62.87 237.91 62.11 257.09 46.63 259.42 49.52 243.93 61.14 246.01 63.91 263.34 50.18 265 51.67 247.66 66.11 249.79 68.95 266.41 54.12 267.55 57.54 251.95 71.83 253.59 74.01 269.54 62.11 272.39 65.39 255.97 77.18" fill="#ffcb39"/><polygon points="124.22 130.25 99.42 146.56 55.06 75.95 55 76 42.15 57.88 30 44 33 41 45.5 55.28 47.26 53.91 35 36 38 33 50.14 51.67 52.94 49.49 40 31 42 29 55.74 47.32 57.92 45.62 45 29 48 27 64.14 48.83 66 33 69 35 67.05 53.95 71.48 61.58 124.22 130.25" fill="#ffcb39"/><path d="M187.79,141.31l-18.06,15.24L160.92,164a15.84,15.84,0,0,1-22.32-1.89l-1.16-1.38a15.74,15.74,0,0,1-3.3-6.48h0a15.91,15.91,0,0,1,1.69-11.68,16.14,16.14,0,0,1,3.49-4.15L152.87,127l13.32-11.25.81,1,18.2,21.56Z" fill="#fe4877"/><polygon points="161 262 211.06 359.21 238 354 198 246 161 262" fill="#ffcb39"/><polygon points="94 290 67 339 84.16 359.21 128.62 303.63 138.81 250.83 101.76 245.27 94 290" fill="#ffcb39"/><path d="M206.43,260.09l-1.27.47-1.55.58L167.49,274.6l-8.3,3.09L144.42,234.3l0-.15v.1l-4.62,46.22-6.45-1h0l-36.46-5.72-3-.48s-3.56-39.11,7.37-63.11a45.44,45.44,0,0,1,2.45-4.71L173,196s1.77,2.59,4.5,6.83c8,12.48,24.45,39.29,28.77,56.61C206.33,259.66,206.38,259.87,206.43,260.09Z" fill="#fe4877"/><path d="M178.22,202.77l-.72.06-18.1,1.74h0l-11.82,1.14h0l-29,2.78c-2.82.26-5.42.51-7.72.74l-9.68.92-.5,0s2.79-43.35,4.47-54.71h0c.14-.93.27-1.63.39-2.09a120.82,120.82,0,0,1,4.36-13.71c2.44-6.12,5.66-11.89,10-15.13a13.8,13.8,0,0,1,2-1.28,13.35,13.35,0,0,1,1.21-.57,14.9,14.9,0,0,1,1.47-.51,28.06,28.06,0,0,1,6.5-1,43.24,43.24,0,0,1,11.11.84,28.52,28.52,0,0,1,3.72,1,23.92,23.92,0,0,1,7,4c8.1,6.48,13.32,18.06,16.86,29.58,1.28,4.14,2.33,8.28,3.22,12.16C173.46,170.91,179.33,202.65,178.22,202.77Z" fill="#161730"/><polygon points="198 336 228 326 246.06 373.16 220 383 198 336" fill="#6562be"/><path d="M227,403l67-30h0c-3.39-7.91-13.83-6.72-22-4l-26,4-6.45-17L212.3,366.22Z" fill="#161730"/><path d="M227,403s6,11,10,6,5-9,9-9,14,0,15-5a9.21,9.21,0,0,1,11-7c5,1,10,1,11-5s10-3,11-4,0-6,0-6Z" fill="#fe4877"/><path d="M276.83,367.67s-2.17,12.71,0,13S294,373,294,373,291.66,364.34,276.83,367.67Z" fill="#ffcb39"/><path d="M212,367s14,0,15,7,4,19,10,18,5.52,4.05,5.52,4.05L227,403Z" fill="#ffcb39"/><rect x="240.35" y="378.13" width="10.3" height="0.75" transform="translate(-204.57 409.69) rotate(-61)" fill="#ffcb39"/><rect x="250.58" y="377.62" width="9.85" height="0.75" transform="translate(-193.69 457.96) rotate(-66.04)" fill="#ffcb39"/><rect x="260.3" y="373.83" width="8.96" height="0.75" transform="translate(-169.58 520.73) rotate(-73.36)" fill="#ffcb39"/><polygon points="186.14 289.62 183.14 280.62 183.86 280.38 186.86 289.38 186.14 289.62" fill="#161730"/><rect x="195.63" y="280.33" width="0.75" height="13.34" transform="translate(-59.52 51.42) rotate(-12.99)" fill="#161730"/><rect x="201.62" y="310.59" width="0.75" height="7.81" transform="translate(-154.52 202.21) rotate(-39.81)" fill="#161730"/><rect x="218.12" y="314.5" width="0.75" height="5" fill="#161730"/><rect x="206.12" y="279.89" width="0.75" height="7.21" transform="translate(-122.58 162.16) rotate(-33.69)" fill="#161730"/><rect x="190.12" y="302.2" width="0.75" height="3.61" transform="translate(-136.63 156.73) rotate(-33.69)" fill="#161730"/><rect x="201.63" y="321.7" width="0.75" height="8.6" transform="translate(-151.86 178.13) rotate(-35.54)" fill="#161730"/><rect x="84.68" y="307.12" width="10.63" height="0.75" transform="translate(-200.65 172.67) rotate(-48.8)" fill="#161730"/><rect x="102.12" y="283.5" width="0.75" height="6" fill="#161730"/><rect x="117.38" y="293.13" width="8.25" height="0.75" transform="translate(-192.69 340.29) rotate(-75.98)" fill="#161730"/><rect x="110.73" y="312.13" width="8.54" height="0.75" transform="translate(-217.98 310.3) rotate(-69.42)" fill="#161730"/><rect x="95.89" y="308.63" width="14.21" height="0.75" transform="translate(-201.38 193.05) rotate(-50.71)" fill="#161730"/><rect x="80.5" y="320.13" width="5" height="0.75" transform="translate(-223.27 194.76) rotate(-53.16)" fill="#161730"/><rect x="96.03" y="322.13" width="8.94" height="0.75" transform="translate(-133.62 78.99) rotate(-26.57)" fill="#161730"/><circle cx="111.5" cy="238.5" r="13" fill="#161730"/><circle cx="128" cy="267" r="6" fill="#161730"/><circle cx="155" cy="221" r="17" fill="#161730"/><circle cx="164" cy="255" r="5" fill="#161730"/><circle cx="191" cy="252" r="3" fill="#161730"/><circle cx="115" cy="212" r="5" fill="#161730"/><circle cx="137" cy="240" r="1" fill="#161730"/><circle cx="180" cy="231" r="4" fill="#161730"/><polygon points="77 317 100.02 340.6 67.78 379.47 46.42 361.58 77 317" fill="#6562be"/><path d="M59,343,34.5,378.5l15,32,53-1s-5-13-18-12-18,1-18,1l2-19L80,365Z" fill="#161730"/><path d="M34,378s-7,7-2,9-2,5,1,7,6,0,5,3-2,8,1,8,3,2,3,6,2,8,8,5,2,0,7,1,5-2,9-3,1,5,7,3,7-5,9-4,0,3,6,2,4-4,7-3,3,5,6,3,1-6,1-6H49Z" fill="#fe4877"/><path d="M41.31,392.51S57,382,54,375s2-13,3-17,1-10.41-3-8L34,378Z" fill="#ffcb39"/><path d="M81.5,409H102a16.62,16.62,0,0,0-15.5-11.54S80,405,81.5,409Z" fill="#ffcb39"/><rect x="59.99" y="383.38" width="8.09" height="0.75" transform="translate(-22.89 4.53) rotate(-3.44)" fill="#ffcb39"/><rect x="58.48" y="389.68" width="8.98" height="0.75" transform="translate(-38.8 8.28) rotate(-5.76)" fill="#ffcb39"/><rect x="58.47" y="395.63" width="8.06" height="0.75" transform="translate(-48.51 10.77) rotate(-7.11)" fill="#ffcb39"/><rect x="64.9" y="334.13" width="17.2" height="0.75" transform="translate(-241.48 200.03) rotate(-54.49)" fill="#ffcb39"/><rect x="72.27" y="339.12" width="13.45" height="0.75" transform="translate(-226.18 171.08) rotate(-48.01)" fill="#ffcb39"/><rect x="75.86" y="344.13" width="16.28" height="0.75" transform="translate(-226.85 173.88) rotate(-47.54)" fill="#ffcb39"/><polygon points="214.16 357.66 206.16 340.66 206.84 340.34 214.84 357.34 214.16 357.66" fill="#ffcb39"/><rect x="218.63" y="338.72" width="0.75" height="16.55" transform="translate(-126.2 125.17) rotate(-25.02)" fill="#ffcb39"/><polygon points="231.16 353.66 223.16 336.66 223.84 336.34 231.84 353.34 231.16 353.66" fill="#ffcb39"/><path d="M29.43,410.47a10.41,10.41,0,0,1-1.48-.1c-15.09-2-16.27-7.08-16.32-7.3l.74-.14s1.24,4.77,15.68,6.7,33.44-28.52,33.63-28.83l.64.4C61.56,382.43,44.2,410.47,29.43,410.47Z" fill="#ffcb39"/><path d="M112.64,114h1.81a15.84,15.84,0,0,1,15.84,15.84V165a0,0,0,0,1,0,0H96.8a0,0,0,0,1,0,0V129.8A15.84,15.84,0,0,1,112.64,114Z" transform="translate(290.11 173.59) rotate(140.09)" fill="#fe4877"/><polygon points="237.91 62.11 236.97 62.87 236.99 62.78 237.91 62.11" fill="#ffcb39"/><polygon points="253.44 261 196 372 176 362 216.44 245 253.44 261" fill="#fb9159"/><polygon points="320.44 289 355 352 341 368 285.82 302.63 275.63 249.83 312.69 244.27 320.44 289" fill="#fb9159"/><path d="M187.44,402l-67-30h0c3.4-7.91,13.84-6.72,22-4l26,4,6.46-17,27.25,10.22Z" fill="#161730"/><path d="M187.44,402s-6,11-10,6-5-9-9-9-14,0-15-5a9.21,9.21,0,0,0-11-7c-5,1-10,1-11-5s-10-3-11-4,0-6,0-6Z" fill="#fe4877"/><path d="M202.44,366s-14,0-15,7-4,19-10,18-5.51,4.05-5.51,4.05L187.44,402Z" fill="#ffcb39"/><rect x="168.57" y="372.35" width="0.75" height="10.3" transform="translate(-162.07 129.55) rotate(-29.05)" fill="#ffcb39"/><rect x="158.57" y="372.08" width="0.75" height="9.85" transform="translate(-139.42 97.05) rotate(-23.96)" fill="#ffcb39"/><path d="M355.44,342l24.5,35.5-15,32-53-1s5-13,18-12,18,1,18,1l-2-19L334.44,364Z" fill="#161730"/><path d="M380.44,377s7,7,2,9,2,5-1,7-6,0-5,3,2,8-1,8-3,2-3,6-2,8-8,5-2,0-7,1-5-2-9-3-1,5-7,3-7-5-9-4,0,3-6,2-4-4-7-3-3,5-6,3-1-6-1-6h53Z" fill="#fe4877"/><path d="M373.14,391.51S357.44,381,360.44,374s-2-13-3-17-1-10.41,3-8l20,28Z" fill="#ffcb39"/><path d="M332.94,408h-20.5a16.62,16.62,0,0,1,15.5-11.54S334.44,404,332.94,408Z" fill="#ffcb39"/><rect x="350.03" y="378.71" width="0.75" height="8.09" transform="translate(-52.56 709.72) rotate(-86.58)" fill="#ffcb39"/><rect x="351.1" y="384.56" width="0.75" height="8.98" transform="translate(-70.75 699.89) rotate(-84.27)" fill="#ffcb39"/><rect x="351.57" y="390.97" width="0.75" height="8.06" transform="translate(-83.66 695.23) rotate(-82.87)" fill="#ffcb39"/><path d="M385,409.47c-14.78,0-32.14-28-32.9-29.27l.64-.4c.19.31,19,30.79,33.63,28.83s15.68-6.66,15.69-6.7l.73.14c0,.22-1.22,5.29-16.32,7.3A10.37,10.37,0,0,1,385,409.47Z" fill="#ffcb39"/><path d="M344.5,304.5l-10.14,9.86-5.48,5.33L324.5,324,313.15,335,308,340c-1.42,1.22-12.19-16.62-13.07-17.64l-.06-.07c-.25-.3-.51-.59-.77-.89-3.7-4.23-7.78-8.45-10.49-13.41-.13-.23-.25-.47-.37-.71a25.38,25.38,0,0,1-1.68-4.1c-2.33-7.61-.84-15.58-2.18-23.28,0-.26-.09-.52-.14-.77-.09-.46-.2-.91-.31-1.37s-.18-.71-.28-1.08A79,79,0,0,0,275,268c-3.09-6.17-6.62-14.58-9.8-22.58h0c-.21-.52-.41-1-.61-1.54-1.22-3.09-2.38-6.1-3.43-8.86-3.38,4.61-3.47,12.63-3.16,18,.1,1.77.24,3.15.33,4.35,0,.32,0,.62.05.92.08,2.45-.24,4.35-2,8.05-3.45,7.2-9.41,13.25-13.48,20.15-.2.34-.39.68-.58,1s-.25.45-.38.68c-3.09,5.78-4.64,11.51-6,17.49-.06.27-.13.55-.19.83-.75,3.25-1.47,6.58-2.38,10a55.09,55.09,0,0,1-4.86,10.71l-.24.38c-1.3,2-2.63,3.29-3.73,2.89l-4.81-1.73-1.11-.4L191,318.49l-1.16-.42-4.38-1.57a38.77,38.77,0,0,1-1.11-9.08h0c0-11.29,4.45-22.7,10-32.26a63.85,63.85,0,0,1,9.53-13.29h0l1.28-1.29c.39-.38.76-.75,1.11-1.12,2.93-3,5.08-5.67,6.13-10.61,1.24-5.89,2-11.9,3.43-17.74a45.54,45.54,0,0,1,2.1-6.36l.33-.79a61.45,61.45,0,0,1,11.19-16.75l.61-.66c.74-.8,1.5-1.58,2.28-2.35,2-2,4-3.87,6.16-5.68l73,8a32.92,32.92,0,0,1,3.18,4c5.4,8,6,16.86,5.64,25.95l0,.76c-.36,8.24-1.41,16.66-.29,24.85,0,.26.07.51.11.76.11.71.23,1.42.38,2.13,2.17,10.56,6.41,15.68,13.16,23.45.22.26.78.87,1.53,1.7l.52.58C339.38,294.82,346.32,302.92,344.5,304.5Z" fill="#161730"/><polygon points="383.45 43 371.3 56.88 314.03 145.56 289.24 129.25 344.14 57.76 346.6 53.04 346.43 53.29 344.45 34 347.45 32 349.31 47.83 365.45 26 368.45 28 355.53 44.62 357.71 46.32 371.45 28 373.45 30 360.51 48.49 363.31 50.67 375.45 32 378.45 35 366.19 52.91 367.95 54.28 380.45 40 383.45 43" fill="#fb9159"/><polygon points="261.25 128.63 243.04 152.06 231.16 141.34 210.19 122.44 190.97 105.09 176.18 91.75 162.11 81.2 159.48 79.23 145.56 66.69 147.93 63.97 161.93 75.52 163.54 73.06 148.81 59.59 149.95 56.16 165.52 70.06 167.46 67.11 151.36 53.7 153.02 52.22 168.96 64.83 170.89 61.9 155.65 50.47 158.02 47.74 172.51 59.45 175.29 61.7 179.41 65.06 176.97 48.8 180.39 49.95 183.51 68.89 193.5 78.2 195.05 79.36 210.31 90.7 229.51 105 249.36 119.78 261.25 128.63" fill="#fb9159"/><path d="M279.31,153.23h0a15.72,15.72,0,0,1-3.29,6.48l-1.17,1.38A15.84,15.84,0,0,1,252.53,163l-8.8-7.43-18.07-15.25,2.59-3.07,18.2-21.56.81-1L260.58,126l13.55,11.43a16.14,16.14,0,0,1,3.49,4.15A15.91,15.91,0,0,1,279.31,153.23Z" fill="#fe4877"/><path d="M321,211l-6.32-.48-82.34-6.34L230,204c-1.11-.12,10-34.09,10.5-36.29.89-3.88,1.95-8,3.23-12.15,3.53-11.52,8.75-23.11,16.85-29.59a23.92,23.92,0,0,1,7-4,28.25,28.25,0,0,1,3.73-1,43.16,43.16,0,0,1,11.1-.84,28.06,28.06,0,0,1,6.5,1c.51.15,1,.32,1.48.51a11,11,0,0,1,1.2.57,13.37,13.37,0,0,1,2,1.28c4.3,3.24,7.51,9,9.95,15.13a118.84,118.84,0,0,1,4.36,13.71c.11.43.28,1.11.49,2C311.11,165.72,321,211,321,211Z" fill="#ffcb39"/><path d="M283.76,86.84,282.43,109V122.3c0,4.06-5.77,4.1-8.35,3a6,6,0,0,1-2.52-1.78c-.6-.93-.2-2.1-.2-3.12v-6.73l-.62-.09a10.63,10.63,0,0,1-10.63-10.64V86.84Z" fill="#fb9159"/><path d="M260.68,91.61c-1.53,0-5,9.92-5,9.92h5Z" fill="#ff534a"/><circle cx="270.22" cy="100.39" r="3.82" fill="#ff534a"/><path d="M267.77,92.82a.75.75,0,0,0-.12-.14,1.52,1.52,0,0,0-.75-.31c-1.19-.25-4.25-1-4.69.77-.36,1.4,1.63,1.19,2.67,1.14S268.49,94.12,267.77,92.82Z" fill="#fff"/><path d="M264.18,92s1.22.83,0,2.32c0,0-2.36.34-2-1.18A1.59,1.59,0,0,1,264.18,92Z" fill="#0c0604"/><path d="M268.69,92.38s-6.48-.77-6.48-1.15-.39-1.91.76-1.91,6.87,1.91,6.48,2.29S269.45,92,268.69,92.38Z" fill="#161730"/><path d="M262.1,106.67a4.29,4.29,0,0,1-1.78-.41l.34-.67c.08,0,2,1,3.16-.47l.59.46A2.83,2.83,0,0,1,262.1,106.67Z" fill="#33270a"/><path d="M283.15,113h33.49a0,0,0,0,1,0,0v35.16A15.84,15.84,0,0,1,300.8,164H299a15.84,15.84,0,0,1-15.84-15.84V113a0,0,0,0,1,0,0Z" transform="translate(158.67 -160.15) rotate(39.91)" fill="#fe4877"/><path d="M273,92s.2,11,2.1,8.52S278,91,278,91l4.45,1-.71,11.78S293,94,288,84s-14-11-20-9-14,7-14,14,20-1,20-1Z" fill="#6562be"/><circle cx="279.95" cy="95.17" r="4.39" fill="#fb9159"/><path d="M281.33,95.44l-.09.74a2.39,2.39,0,0,0-1.75.53,2.51,2.51,0,0,0-.51,2.11l-.74.08a3.66,3.66,0,0,1,.32-2.16,3,3,0,0,1-.19-2.32,1.22,1.22,0,0,1,.7-.68l.24.71a.53.53,0,0,0-.27.3,1.9,1.9,0,0,0,.06,1.31A3.1,3.1,0,0,1,281.33,95.44Z" fill="#0c0604"/><path d="M278.84,87.34s0,15.9-3.18,14.84-4.25-1.06-3.18-15.9S278.84,87.34,278.84,87.34Z" fill="#6562be"/><path d="M241.4,231.4c0-.14,0-.28,0-.42,0-.31,0-.62,0-.93a97.51,97.51,0,0,0-1.63-13.48c-.06-.27-.11-.53-.17-.78a39.07,39.07,0,0,0-1.81-6.22c-.14-.38-.29-.72-.42-1a10,10,0,0,0-1-1.8l-.59.47a6.38,6.38,0,0,1,.54.89c.13.27.29.6.47,1a37.16,37.16,0,0,1,2.09,6.89c.06.26.11.52.16.79A97.74,97.74,0,0,1,240.63,231c0,.06,0,.11,0,.17,0,.4,0,.81.05,1.21a63.7,63.7,0,0,1-2.38,19.36c-.06.25-.13.49-.21.73q-.24.82-.51,1.65a64.55,64.55,0,0,1-11.16,20.56l-.49.6a67.43,67.43,0,0,1-7.68,7.92,49,49,0,0,0-4.72,4.73q-.79.9-1.53,1.83a70,70,0,0,0-10-2.94l-1.16-.26c-1.85-.42-3.52-.8-4.81-1.23a8.85,8.85,0,0,1-.84-.31c-1-.42-1.71-.92-1.84-1.56a3.19,3.19,0,0,1,.93-2.4,7,7,0,0,1,.52-.64,62.09,62.09,0,0,1,8.95-7.64c1.12-.84,2.21-1.68,3.26-2.52.34-.26.67-.53,1-.8,3.08-2.48,5.83-4.91,8.25-7.26l.6-.59a78.77,78.77,0,0,0,7.34-8.18c.23-.3.46-.6.67-.9.78-1.05,1.47-2.06,2.06-3,2.58-4.16,3.55-7.53,3-9.72a3.59,3.59,0,0,0-3.33-2.67l-.09.74a2.84,2.84,0,0,1,2.69,2.13c.54,2-.44,5.23-2.94,9.22q-1.07,1.71-2.51,3.6c-.23.31-.48.63-.74,1a79.62,79.62,0,0,1-6.28,7c-.21.22-.43.43-.65.64-2.24,2.2-4.77,4.47-7.58,6.77-.57.48-1.14.94-1.73,1.41-1.11.88-2.25,1.77-3.44,2.66-8.15,6.11-11.14,9.31-10.69,11.44.23,1.05,1.21,1.73,2.79,2.3.26.1.54.19.83.27,1.23.37,2.72.71,4.44,1.1l1.09.24a67.74,67.74,0,0,1,9.78,2.85c-7.46,9.66-10.51,20.63-7.83,25.41a4.76,4.76,0,0,0,.32.51l0,.05.45.53a5.61,5.61,0,0,0,4.26,1.63,13.09,13.09,0,0,0,3.86-.67,58.68,58.68,0,0,0,5.52-2c.26-.1.51-.21.75-.32q.74-.31,1.41-.66l.9-.45c.63-.34,1.22-.67,1.77-1a14.61,14.61,0,0,0,4.47-4,8.35,8.35,0,0,0,.62-1.08,6.81,6.81,0,0,0,.61-2c.55-4.06-2.79-8.46-9.95-13.1a36.39,36.39,0,0,0-4.07-2.25c-.63-.3-1.26-.59-1.89-.85.35-.44.71-.88,1.09-1.31a48.13,48.13,0,0,1,4.91-5,67.53,67.53,0,0,0,7.74-8c.16-.2.33-.4.48-.6a65.31,65.31,0,0,0,11.31-20.78c.21-.63.41-1.27.59-1.91l.21-.73A64.5,64.5,0,0,0,241.4,231.4ZM215,291.94h0a33.62,33.62,0,0,1,3.28,1.87c6.89,4.46,10.13,8.62,9.62,12.36a6.42,6.42,0,0,1-1,2.65,10.32,10.32,0,0,1-1.1,1.37,17.08,17.08,0,0,1-3.1,2.48l-.74.45h0c-.42.26-.86.5-1.32.74s-1.13.57-1.74.84c-.24.12-.5.23-.75.34a56.67,56.67,0,0,1-5.74,2.1c-3.95,1.23-6.73.65-8-1.7-2.56-4.56.68-15.39,7.92-24.74C213.19,291.08,214.1,291.49,215,291.94Z" fill="#fff"/><path d="M321.3,295.82l-.53-.62a54.75,54.75,0,0,0-4.9-5l-.57-.52c-1-.85-2-1.7-3-2.52,3.31-2.72,5.71-5.46,6.42-8.33v0a6.89,6.89,0,0,0,.23-1.91,7.63,7.63,0,0,0-1.23-3.88h0c-1.29-2.11-3.63-4.18-7-6.26l5.56-2.28,1-.41.7-.29,2.21-.91c0-.25-.08-.5-.11-.76l-2.48,1-.7.28-.76.32-6.24,2.54-.13-.08c-10.68-6.16-17.21-12.9-19.93-18.46q-.17-.32-.3-.63a71.35,71.35,0,0,0,6.16-6.37c.16-.17.31-.36.46-.54a36.74,36.74,0,0,0,3.75-5.49l.06-.1a41,41,0,0,1,5.57.29c5.43.63,10.42,1.43,14.83,2.36l0-.76c-6-1.24-11.7-2-14.77-2.34a43.39,43.39,0,0,0-5.26-.31c2.89-5.51,3.5-9.43,1.93-12.28-3-5.38-13.31-6-27.62-6.78-3.22-.18-6.56-.38-10.07-.63a83.29,83.29,0,0,0-20.31.59l-.76.13c-1.47.28-2.77.6-3.93.94l-.72.22c-5.68,1.81-7.48,4.09-7.61,4.26l.6.46s1.75-2.18,7.17-3.93l.73-.23a39.3,39.3,0,0,1,4.09-1l.76-.13a82.34,82.34,0,0,1,19.93-.59c3.51.26,6.85.45,10.08.64,13.53.77,24.23,1.38,27,6.39,1.46,2.64.76,6.54-2.13,11.94-3.85.14-6.86,1-8.89,2.47a4.18,4.18,0,0,0-.58.46,6.78,6.78,0,0,0-2.07,3.09,10.18,10.18,0,0,0,.62,7.08l-1.28,1.15c-.92.84-1.83,1.64-2.72,2.43a85.24,85.24,0,0,0-7.38,7c-2.32,2.67-3.66,5.22-3.15,7.77.45,2.28,2.37,4.43,5.91,6.54a52.81,52.81,0,0,0,7.67,3.61c-2.25,1-4.4,1.9-6.43,2.8l-1.89.86c.05.25.1.51.14.77l1.9-.87c2.35-1,4.79-2.12,7.28-3.18.9.33,1.84.67,2.82,1a70.9,70.9,0,0,1,19.68,10.31c-3.17,2.51-7.11,5-11.14,7.6a128.94,128.94,0,0,0-13.06,9.09c-.94.79-1.81,1.58-2.62,2.38-.36.36-.69.71-1,1,.12.24.24.48.37.71.36-.4.74-.81,1.16-1.23.79-.79,1.65-1.57,2.57-2.34a131.3,131.3,0,0,1,13-9c4.1-2.62,8.11-5.18,11.35-7.76,1.13.87,2.21,1.76,3.23,2.67l.57.52a53.62,53.62,0,0,1,4.5,4.57q.28.32.54.63c6.62,7.81,9.48,15.91,8.31,21.43-1,4.85-5,7.22-11.29,6.68l-.39,0c-4.87-.42-9.8-.85-14.38-1.39-3.09-.37-6-.79-8.67-1.3.26.3.52.59.77.89,2.67.48,5.57.89,8.6,1.24,4.37.51,9,.91,13.61,1.31l.39,0c.59.05,1.17.08,1.72.08a13.13,13.13,0,0,0,5.31-1,8.26,8.26,0,0,0,4.38-4.26,9.58,9.58,0,0,0,.69-2.08C330.75,312,327.91,303.76,321.3,295.82Zm-32.7-55.73a6.31,6.31,0,0,1,2-2.91,5,5,0,0,1,.59-.44,15.11,15.11,0,0,1,7.8-2.13,35.79,35.79,0,0,1-3.53,5.11l-.45.54a69,69,0,0,1-5.88,6.09A9.37,9.37,0,0,1,288.6,240.09Zm-.05,35a50.27,50.27,0,0,1-8.85-4.16c-3-1.86-4.6-3.74-5-5.7-.43-2.13.66-4.34,2.6-6.68a73.93,73.93,0,0,1,7.69-7.41c1.17-1,2.38-2.1,3.59-3.2l.24-.22.08.17c2.88,6.07,10.06,13,20,18.77l-1.09.44C300.86,269.9,294.37,272.56,288.55,275Zm23.1,11.64a71.18,71.18,0,0,0-20-10.54l-2.05-.72c6.24-2.66,12.71-5.29,18.57-7.67l1.62-.66c5.58,3.29,8.32,6.51,8.4,9.82S315.6,283.47,311.65,286.68Z" fill="#fff"/><path d="M216.84,261.63l-.6.59c1.14,4,5,8.61,9.7,13.08l.49-.6C221.62,270.17,217.76,265.5,216.84,261.63Zm0,0-.6.59c1.14,4,5,8.61,9.7,13.08l.49-.6C221.62,270.17,217.76,265.5,216.84,261.63Zm118.34,28.49c-4.32,1.74-8.38,3.27-11.75,4.32-.95.3-1.83.55-2.66.76-.27.07-.53.14-.79.19-3,.7-5,.75-5.67-.15-.42-.57-.4-1.8,1.17-4.42q.16-.3.39-.63a52.13,52.13,0,0,1,3.88-5.2l.21-.25c4-4.75,3.25-12-2.06-21l-.38-.64-.09-.15c-.63-1-1.31-2-2-3.09h0a89.39,89.39,0,0,0-12.62-14.09c-2.17-2-4.42-3.86-6.69-5.59l-.6-.45c-1.42-1.06-2.85-2.06-4.27-3l-.67-.43c-7.28-4.62-14.3-7.22-19.19-6.11-3.65.83-5.74,3.61-6.22,8.26-.19,1.86-.38,3.66-.54,5.41.2.51.4,1,.61,1.54.21-2.2.43-4.49.68-6.87.44-4.3,2.34-6.86,5.64-7.61,4.69-1.07,11.43,1.41,18.44,5.84l.66.41q2.2,1.42,4.41,3.08l.59.45c2.12,1.61,4.21,3.35,6.24,5.19a86.92,86.92,0,0,1,13.84,15.74h0c.37.57.73,1.14,1.08,1.7l0,0,.38.65c3.65,6.15,6.78,14.33,2.38,20-.06.09-.13.17-.2.26a56.25,56.25,0,0,0-4.08,5.41l-.39.63c-1.58,2.61-2,4.36-1.2,5.38.88,1.17,3.21,1.2,6.81.34l.78-.2c.78-.2,1.61-.44,2.5-.72,3.29-1,7.28-2.53,11.9-4.4Zm-106,17.7h0l-1.16.48c-.41.17-.79.35-1.16.52a18.61,18.61,0,0,0-4.56,2.86,6.69,6.69,0,0,0-1.71,2.18,3.85,3.85,0,0,0-.33,1s0,0,0,.05c-.29,1.73.59,3.45,2.62,5.11a20.13,20.13,0,0,0,3.34,2.23h0l1.09.57.33-.67q-1-.5-1.83-1a17.35,17.35,0,0,1-2.59-1.82c-1.7-1.46-2.46-2.92-2.23-4.31a3.35,3.35,0,0,1,.17-.62,4.69,4.69,0,0,1,.75-1.3h0a5.29,5.29,0,0,1,.65-.7,14.39,14.39,0,0,1,3.19-2.23c.51-.28,1.05-.55,1.64-.81.4-.19.82-.38,1.26-.55h0a57.93,57.93,0,0,1,7-2.34c.06-.28.13-.56.19-.83A63.61,63.61,0,0,0,229.22,307.82ZM227,275.22l-.54-.52c-4.81-4.53-8.67-9.2-9.59-13.07a7.56,7.56,0,0,1-.16-.91,5.74,5.74,0,0,1,.13-2.16c.58-2.16,2.64-3.76,6.15-4.79.38-.11.79-.22,1.22-.32a44.8,44.8,0,0,1,8.65-1l.8,0c.47,0,.94,0,1.4,0,1.05,0,2.07,0,3.07.08l.77,0a42.42,42.42,0,0,1,19.51,5.74c0-.3,0-.6-.05-.92a43.61,43.61,0,0,0-19.25-5.55l-.77,0c-1.76-.1-3.6-.12-5.51-.06l-.78,0h0a45.69,45.69,0,0,0-7.16.82c-.4.08-.78.17-1.15.27-4.36,1.09-6.91,2.94-7.61,5.55a6.67,6.67,0,0,0-.06,3c.06.28.12.57.21.86,1.14,4,5,8.61,9.7,13.08l.55.52a145.09,145.09,0,0,0,13.59,11c.63.47,1.25.91,1.85,1.33.13-.23.25-.46.38-.68l-1.87-1.35A153.3,153.3,0,0,1,227,275.22Zm-10.13-13.59-.6.59c1.14,4,5,8.61,9.7,13.08l.49-.6C221.62,270.17,217.76,265.5,216.84,261.63Z" fill="#fff"/><path d="M241.83,230.68c-.14.25-.28.49-.43.72s-.47.69-.71,1a7.55,7.55,0,0,1-6.11,3.15h-.21c-5.4-.13-11.64-5.53-16.44-10.82l.33-.79c4.73,5.26,10.92,10.73,16.13,10.86,2.5,0,4.6-1.15,6.25-3.61a9.18,9.18,0,0,0,.54-.87l.15-.27c3.2-5.79,4-10.65,2.46-14.46a5.4,5.4,0,0,0-.33-.74l-.1-.2a12.44,12.44,0,0,0-5.64-5.08c-.32-.16-.65-.31-1-.45a28.49,28.49,0,0,0-7.27-1.93l.61-.66a29.27,29.27,0,0,1,6.19,1.59c.36.13.71.28,1.05.44A13.49,13.49,0,0,1,244,214.3c.07.14.14.28.2.42a5.4,5.4,0,0,1,.33.74C246.14,219.52,245.23,224.63,241.83,230.68Z" fill="#fff"/><path d="M153.34,87.84v16.07a10.64,10.64,0,0,1-10.64,10.64l-.62.09v6.73c0,1,.41,2.19-.2,3.12a6,6,0,0,1-2.51,1.78c-2.59,1.13-8.35,1.09-8.35-3V110l-1.34-22.15Z" fill="#ffcb39"/><path d="M152.77,92.61c1.52,0,5,9.92,5,9.92h-5Z" fill="#ff534a"/><circle cx="143.23" cy="101.39" r="3.82" fill="#ff534a"/><path d="M140.17,89.94s1.48-2.1,5.73-.76,16.4.76,17.93-7.25-7.63-8.39-12.21-2.29c-.08-2.47-2.07-4.58-5.89-4.75-1,0,.85-3.74-.07-3.27a7.18,7.18,0,0,0-3.41,2.94c-.5,1-.54,2.21-.94,3.28-.78,2-2.63,2.94-4.6,3.52-2.51.75-6.31.68-8.36,2.48-3.06,2.67-8.46,12.34,1.52,18.69l8.4-11.44,0,23.46s8.94,5.56,14.66,2.89c3.89-1.82.18-6.51.56-11.09.14-1.7.45-3-1.26-3h-2.08a2.83,2.83,0,0,0-2.66,1.83c-1.3,3.45-4.1,10-4.68,3.89C142.08,101,140.17,89.94,140.17,89.94Z" fill="#6562be"/><circle cx="133.5" cy="97.76" r="4.39" fill="#ffcb39"/><path d="M135.21,99.9l-.75-.08a2.45,2.45,0,0,0-.51-2.11,2.36,2.36,0,0,0-1.74-.53l-.09-.74a3.16,3.16,0,0,1,2.22.61,1.87,1.87,0,0,0,.06-1.3.54.54,0,0,0-.26-.3l.23-.71a1.23,1.23,0,0,1,.71.68,3,3,0,0,1-.19,2.31A3.6,3.6,0,0,1,135.21,99.9Z" fill="#0c0604"/><path d="M145.68,93.82a.67.67,0,0,1,.11-.14,1.52,1.52,0,0,1,.75-.31c1.2-.25,4.26-1,4.7.77.35,1.4-1.63,1.19-2.67,1.14S145,95.12,145.68,93.82Z" fill="#fff"/><path d="M149.26,93s-1.21.83,0,2.32c0,0,2.36.34,2-1.18A1.6,1.6,0,0,0,149.26,93Z" fill="#0c0604"/><path d="M144.75,93.38s6.49-.77,6.49-1.15.38-1.91-.76-1.91-6.87,1.91-6.49,2.29S144,93,144.75,93.38Z" fill="#161730"/><path d="M152.77,104.44a5.61,5.61,0,0,1-.39,4.58l-3.81-.23S146.47,104,152.77,104.44Z" fill="#ffcb39"/><path d="M151.35,107.67a2.82,2.82,0,0,1-2.31-1.09l.59-.46c1.12,1.45,3.08.51,3.16.47l.33.67A4.24,4.24,0,0,1,151.35,107.67Z" fill="#33270a"/><path d="M154,78.91,125.91,96.19a2.31,2.31,0,0,1-3-.49l-1-1.26a2.32,2.32,0,0,1,.66-3.52l.76-.42c-.77-1-6-7.27-9.85-6.5-4.14.82-9.11-4.14-2.48-5.8S132.48,65,135.79,69.09s11-7.42,14.21,6.64l-8.42,4.71,10.07-5.54a2.37,2.37,0,0,1,1.12-.29,2.32,2.32,0,0,1,1.22,4.3Z" fill="#fb9159"/><circle cx="105.98" cy="84.82" r="2.48" fill="#fb9159"/><polygon points="159.88 98.5 159.13 98.5 159.13 91.91 133.53 93.87 133.47 93.13 159.88 91.09 159.88 98.5" fill="#161730"/><path d="M136.1,365.87s2.17,12.71,0,13-17.17-7.69-17.17-7.69S121.27,362.54,136.1,365.87Z" fill="#ffcb39"/></svg>