<svg xmlns="http://www.w3.org/2000/svg" viewBox="0 0 1080 1080"><defs><style>.cls-1{fill:#fff;}.cls-2{fill:#efefef;}.cls-3{fill:#e4e4e4;}.cls-4{fill:#ebebeb;}.cls-5{fill:#e2e2e2;}.cls-6{fill:#f5f5f5;}.cls-7{fill:#fafafa;}.cls-8{fill:#f2f2f2;}</style></defs><title>Fondo</title><g id="Capa_4" data-name="Capa 4"><polygon class="cls-1" points="0 871.82 162.65 936.29 0 980.53 0 871.82"/><path class="cls-2" d="M433.12,999.59s504.23,64.23,646.88,32.47V709.47l-84.92-29.78Z"/><path class="cls-3" d="M162.65,936.29s167.53,53.89,238.59,55.06L677.71,784.29l-9.39-9.88H648.76Z"/><polygon class="cls-4" points="0 697.82 1074.77 623.71 1080 709.47 256.63 420.7 107 433.12 0 513.59 0 697.82"/><polygon class="cls-5" points="256.63 420.7 874.78 637.5 1074.77 623.71 1080 350.53 317.71 350.53 256.63 420.7"/><path class="cls-6" d="M0,117.59,958.47,245.38,1080,316.65v33.88S381.12,314.53,0,513.59Z"/><polyline class="cls-1" points="540 0 958.47 245.38 1080 261.59 1080 0 540 0 540 0"/><polygon class="cls-7" points="0 117.59 1080 261.59 1080 316.65 540 0 0 0 0 117.59"/><path class="cls-8" d="M0,697.82,874.78,637.5l120.3,42.19-562,319.9s-28.12-4.94-31.88-8.24L663.35,785.71,162.65,936.29S7.24,889.71,0,871.82Z"/><path class="cls-1" d="M433.12,999.59,1080,1032.06V1080H293.71S389,1024.29,433.12,999.59Z"/><polygon class="cls-8" points="0 980.53 0 1080 293.71 1080 401.24 991.35 162.65 936.29 0 980.53"/><polygon class="cls-1" points="401.24 991.35 433.12 999.59 293.71 1080 401.24 991.35"/></g></svg>