<svg id="Capa_1" data-name="Capa 1" xmlns="http://www.w3.org/2000/svg" viewBox="0 0 955.56 192.62"><defs><style>.cls-1{fill:#7bb72e;}.cls-2{fill:#f6a71a;}.cls-3{fill:#8d4390;}.cls-4{fill:#e5322a;}.cls-5{fill:#f3e51c;}.cls-6{fill:#009f98;}.cls-7{fill:#1c1c1a;}</style></defs><title>peismw ULTUMOOO</title><path class="cls-1" d="M905.85,568.27l-58.32,58.31a31.41,31.41,0,1,1-44.44-44.41l58.32-58.31Z" transform="translate(-62.22 -443.17)"/><path class="cls-2" d="M986.53,474.58a31.41,31.41,0,0,1-9.21,22.22l-27.07,27.06-44.4-44.41,27.06-27.06a31.42,31.42,0,0,1,53.62,22.19Z" transform="translate(-62.22 -443.17)"/><path class="cls-3" d="M1008.57,626.58a31.37,31.37,0,0,1-44.41,0l-58.31-58.31,44.4-44.41,58.32,58.31A31.37,31.37,0,0,1,1008.57,626.58Z" transform="translate(-62.22 -443.17)"/><path class="cls-4" d="M905.85,479.45l-44.44,44.41L834.34,496.8a31.41,31.41,0,1,1,44.44-44.41Z" transform="translate(-62.22 -443.17)"/><polygon class="cls-5" points="843.62 36.28 843.62 125.1 799.18 80.69 843.62 36.28"/><polygon class="cls-6" points="888.03 80.69 843.62 125.1 843.62 36.28 888.03 80.69"/><path class="cls-7" d="M149,565.45H101V633H62.22V463.55c0-10.88,8.66-20.37,19.54-20.37h64.48c40.2,0,61.14,21.49,61.14,61.13C207.38,541.72,187,565.45,149,565.45Zm-9.77-34.34c19.54.28,29.31-8.93,29.31-27.36s-9.21-27.63-27.36-27.63H101.58v55Z" transform="translate(-62.22 -443.17)"/><path class="cls-7" d="M224.69,556.79c1.12-47.73,26.52-71.46,75.93-71.46h5.3v38.52H293.36c-20.66,0-31,10.89-31,32.38V633H224.69Z" transform="translate(-62.22 -443.17)"/><path class="cls-7" d="M348.08,443.18c12.28,0,18.14,6.14,17.86,18.14v10.89H328.81v-29Zm0,42.15c12,0,17.86,5.86,17.86,17.86V633H328.81V485.33Z" transform="translate(-62.22 -443.17)"/><path class="cls-7" d="M451.36,606.2c15.63,0,23.45-4.46,23.45-14,0-7.54-12.84-13.68-38.25-18.15-32.66-5.86-49.41-20.38-49.68-43.55,0-31.82,25.12-46.89,58.9-47.45q28.47,0,45.22,12.56,16.32,13,17.59,36H485.14c-8.66-.28-14.24-3.35-16.47-9.22-2.52-6.41-10.05-10-22.34-10-14.51,0-21.77,3.91-21.77,11.44s9.49,13.4,28.75,17c25.13,5,41.6,11.45,49.69,19a36.67,36.67,0,0,1,10.33,26.24c0,36.29-28.47,49.69-67.55,49.69-20.66,0-36.29-4.47-46.34-13.12-11.17-8.37-16.75-21.21-16.75-38.24h38C421.49,600.62,433.21,606.2,451.36,606.2Z" transform="translate(-62.22 -443.17)"/><path class="cls-7" d="M567.21,538.65V633H529.52V546.18c0-42.15,21.22-63.08,63.37-63.08,19,0,33.5,4.18,44.11,12.56,10.6-8.1,25.12-12,44.1-12,42.15,0,63.09,20.93,62.81,63.08v86.82H724.65c-12.28-.84-18.42-6.7-18.42-18.43V539.2c-.84-15.35-9.22-22.88-25.69-22.88s-24.84,7.53-25.12,22.88V633H618V538.65c-.83-15.36-9.21-22.89-25.68-22.89S567.49,523.29,567.21,538.65Z" transform="translate(-62.22 -443.17)"/></svg>