<svg id="Capa_1" data-name="Capa 1" xmlns="http://www.w3.org/2000/svg" viewBox="0 0 282.68 369.05"><title>Mesa de trabajo 53</title><path d="M205.14,344.53l68-30.44h0c-3.44-8-14-6.82-22.31-4l-26.38,4-6.55-17.24-27.64,10.37Z" fill="#161730"/><path d="M205.14,344.53s6.09,11.16,10.15,6.09,5.07-9.13,9.13-9.13,14.2,0,15.22-5.08a9.34,9.34,0,0,1,11.16-7.1c5.07,1,10.14,1,11.15-5.07s10.15-3,11.16-4.06,0-6.09,0-6.09Z" fill="#fe4877"/><path d="M229.71,296.83l-9.3,6.06,0,0-24.55,16-.54.35-7.88,5.14-6.75-13.18-.37-.72-12-23.45-.4-.78-6.68-13.05-.37-.73-9.08-17.73-.37-.74-11.68-22.78-.41-.81L128.43,209.2l-.47-.92-9.07-17.71L115,183.05l-.35-.68-3.2-6.25-.34-.67-4.53-8.84.2-5.12,0-.93.34-8.42,0-.74.09-2.27,0-.76.11-2.81.07-1.63,0-1.08,43.73-4.28,1.32,2.66,1.21,2.44.39.79L155.5,147l.34.68,28.25,57,.32.66,7.77,15.67.38.77,33.17,66.94.83,1.68h0Z" fill="#161730"/><path d="M133.66,24.6l-.44,16.3a10.8,10.8,0,0,1-11.08,10.49l-.64.08c0,.66,0,1.33,0,2,0,1.61-.08,3.22-.13,4.83,0,1,.35,2.24-.28,3.16a6,6,0,0,1-2.61,1.73c-2.65,1.08-8.49.88-8.38-3.24l.37-13.55L109.67,24Z" fill="#ffcb39"/><path d="M133,29.42c1.55,0,4.76,10.2,4.76,10.2l-5-.14Z" fill="#ff534a"/><circle cx="123.04" cy="38.06" r="3.87" fill="#ff534a"/><path d="M120.26,26.37c-.22-1.56,4.62-.84,5.18-.73,3.8.75,7.77,1.24,11.5.19s7.15-4,7.73-7.81a5.23,5.23,0,0,0-1.11-4.37,5.6,5.6,0,0,0-4.87-1.35c-1.78.26-3.1,1.35-4.48,2.4-1,.73-1.3,1.36-2,.4s-.82-2.41-1.28-3.4a6.51,6.51,0,0,0-3-3.27c-5.58-2.53-6.56,8-11,9.14-2.57.7-6.42.51-8.55,2.28-3.17,2.63-8.91,12.29,1,19l8.83-11.37-.6,23.79s8.91,5.88,14.79,3.33c4-1.73.36-6.59.87-11.23.19-1.71.54-3.08-1.19-3.13L130,40.19A2.84,2.84,0,0,0,127.3,42c-1.41,3.46-4.44,10-4.86,3.81C121.89,37.71,120.29,26.56,120.26,26.37Z" fill="#6562be"/><circle cx="113.27" cy="34.12" r="4.45" fill="#ffcb39"/><path d="M114.93,36.33l-.74-.1a2.5,2.5,0,0,0-.46-2.16,2.42,2.42,0,0,0-1.76-.59l-.07-.74a3.22,3.22,0,0,1,2.15.61,2,2,0,0,0,.12-1.36.53.53,0,0,0-.27-.32l.26-.71a1.3,1.3,0,0,1,.69.71,3.06,3.06,0,0,1-.24,2.31A3.71,3.71,0,0,1,114.93,36.33Z" fill="#0c0604"/><path d="M125.73,30.45l.12-.14a1.61,1.61,0,0,1,.77-.29c1.22-.23,4.34-.9,4.74.91.32,1.43-1.68,1.16-2.74,1.09S125,31.75,125.73,30.45Z" fill="#fff"/><path d="M129.39,29.72s-1.26.81-.07,2.35c0,0,2.39.42,2-1.14A1.62,1.62,0,0,0,129.39,29.72Z" fill="#0c0604"/><path d="M124.81,30s6.59-.6,6.61-1,.43-1.92-.73-1.95-7,1.74-6.64,2.14S124,29.57,124.81,30Z" fill="#161730"/><path d="M132.63,41.42a5.67,5.67,0,0,1-.52,4.63l-3.86-.34S126.25,40.81,132.63,41.42Z" fill="#ffcb39"/><path d="M132.38,44.47a3.19,3.19,0,0,1-3.59-1l.61-.45c1.11,1.52,3.17.58,3.19.57l.32.68A3,3,0,0,1,132.38,44.47Z" fill="#0c0604"/><polygon points="140 35.59 139.25 35.57 139.43 28.87 113.41 30.17 113.37 29.42 140.2 28.09 140 35.59" fill="#161730"/><path d="M155.72,140.93,77,148.47S80.35,97,82,90.84c2.87-10.93,8-27.18,17.78-31.14.48-.19,1-.36,1.5-.52a31.73,31.73,0,0,1,9.11-1.12,40.11,40.11,0,0,1,12.52,2c12.08,4.27,19.28,18.43,23.84,32.77,1.47,4.62,2.66,9.25,3.66,13.58C150.89,108.61,156.85,140.81,155.72,140.93Z" fill="#161730"/><path d="M34.78,283.19l-24.85,36,15.22,32.46,53.76-1s-5.07-13.19-18.26-12.18-18.26,1-18.26,1l2-19.28L56.09,305.5Z" fill="#161730"/><path d="M9.42,318.69s-7.1,7.1-2,9.13-2,5.08,1,7.1,6.08,0,5.07,3.05-2,8.11,1,8.11,3,2,3,6.09,2,8.12,8.11,5.07,2,0,7.1,1,5.08-2,9.13-3.05,1,5.08,7.11,3.05,7.1-5.08,9.13-4.06,0,3,6.08,2,4.06-4.06,7.1-3.05,3,5.08,6.09,3.05,1-6.09,1-6.09H24.64Z" fill="#fe4877"/><path d="M123.26,144.28l-.36,3.85-.08.8-.87,9.2-.11,1.21v0l-.06.6-.1,1-1.23,13-.06.75-1.5,15.81-.8,8.51-.1,1-.23,2.5h0l-.17,1.82-1.08,11.45-.07.75-.24,2.55,0,.43-1.86,19.68-.54,5.74L73.57,298.11,48.64,331.05l-5-3.58L28.58,316.62l-.13-.09h0l-1.38-1a.27.27,0,0,0-.08-.07l-9.67-6.95-5-3.6,5-7.44,8.41-12.42.41-.6,8.76-12.94.43-.63,4.9-7.24.9-1.32h0l4.45-6.57,3.15-4.66.5-.74,9-13.27.55-.81,7.87-11.62.67-1,.33-.48.53-3.56,0-.17,2.12-14.2.11-.75.22-1.49,1.71-11.49L75.86,168l.11-.75,2.43-16.35.12-.76.27-1.83.74-5,8.9.2,3.65.08,15.45.33,13.69.31Z" fill="#161730"/><path d="M146.72,92.79,110.36,58.06a40.11,40.11,0,0,1,12.52,2C135,64.29,142.16,78.45,146.72,92.79Z" fill="#fe4877"/><path d="M158.14,159.51c-1.15-1.91-6.21-.94-13.23.39-7.36,1.4-16.52,3.15-21.63,1.14-.61-.24-1.32-.61-1.5-1.07a.52.52,0,0,1,0-.27.86.86,0,0,1,.11-.33v0c1.55-3.18,19.28-8.22,34-11.62l-.34-.68c-10.11,2.34-29.06,7.13-33.55,11.09a2.46,2.46,0,0,0-1,1.5,1.58,1.58,0,0,0,.7,1.37,5,5,0,0,0,1.32.73c5.31,2.1,14.6.33,22.05-1.09,5.95-1.13,11.57-2.21,12.45-.74.28.47.19,1.56-1.86,4.1-10,12.44-18,12.05-32.45,10.2a22.65,22.65,0,0,0-2.74-.19c-.47,0-1,0-1.43,0a12.27,12.27,0,0,0-3.44-7.19l-.56.5a11.73,11.73,0,0,1,3.24,6.74,30.66,30.66,0,0,0-7.11,1.37c-6.07,1.9-10.81,5.36-11.31,8.11-.16.87,0,2.45,2.89,3.14a10.5,10.5,0,0,0,2.51.28,15.12,15.12,0,0,0,9.8-3.93,13,13,0,0,0,2.51-3,10.31,10.31,0,0,0,1.5-5.24c.44,0,.88,0,1.34,0a24.81,24.81,0,0,1,2.7.18c14.3,1.84,22.88,2.26,33.13-10.47C158.14,162.1,158.74,160.52,158.14,159.51Zm-41.23,20.13a12.54,12.54,0,0,1-2.22,2.73c-3.19,3-7.9,4.53-11.78,3.6-1.74-.42-2.52-1.18-2.33-2.28.42-2.29,4.94-5.69,10.91-7.57a29.79,29.79,0,0,1,6.8-1.3A9.34,9.34,0,0,1,116.91,179.64Z" fill="#fff"/><path d="M153.83,143.67q-1-.09-2.25-.24c-2.17-.27-4.18-.63-5.94-.94l-2.22-.38h0c-4.38-.72-7.87-1-11.11,1.06a11.29,11.29,0,0,0-1.44,1.06,25,25,0,0,1-7.95,3.9,73.6,73.6,0,0,1-13.21,3,4,4,0,0,0-1.75-2.55,1.94,1.94,0,0,0-.59-.2c-.93-.18-2.52.14-4.37,3.07l-.16.25a41.07,41.07,0,0,1-7.78-.42c-1.29-.21-2.75-.42-4.33-.61-1.06-.13-2.18-.24-3.32-.34a68.58,68.58,0,0,0-8.87-.19c-5,.25-9.84,1.23-13.22,3.58a3.76,3.76,0,0,0-1.8,4c.72,3.69,6.31,7.79,12.36,10.3a34.89,34.89,0,0,0,5.73,1.84,12.36,12.36,0,0,0,2.64.3h0a11,11,0,0,0,2.72-.35c3.7-.94,6.78-3.68,9.4-6.95,3.91.38,7.93.23,10.42-1.34a5,5,0,0,0,2.05-2.34,13,13,0,0,0,1-7.32,76.31,76.31,0,0,0,13-2.9c3.78-1.24,6.84-2.68,8.52-4.13a9.58,9.58,0,0,1,3-1.82h0a12.66,12.66,0,0,1,5.7-.55h0c1.63.15,3.39.46,5.39.81,1.78.31,3.8.67,6,.94,1,.12,1.87.22,2.73.29Zm-46.92,5.4a1.4,1.4,0,0,1,.41.06,1.53,1.53,0,0,1,.27.11,3.12,3.12,0,0,1,1.34,2c-.57.07-1.13.14-1.7.19-1.18.12-2.34.21-3.5.26C104.84,150,106,149.07,106.91,149.07ZM96.08,162a60.35,60.35,0,0,1-7.32-1.29c-1.31-.3-2.33-.58-2.9-.74l-.51-.15-.21.71.61.19c.61.17,1.6.44,2.86.74a60.74,60.74,0,0,0,6.9,1.25c-2.37,2.87-5.12,5.26-8.34,6.21h0a10.13,10.13,0,0,1-2.76.42,10.55,10.55,0,0,1-2.64-.26A34.53,34.53,0,0,1,76,167.24c-6-2.55-11.12-6.56-11.74-9.69a3,3,0,0,1,1.5-3.22c2.86-2,7.19-3.15,12.67-3.44,1-.06,2-.09,3-.09,1.84,0,3.8.08,5.85.26q1.6.12,3.3.33h0c1.41.17,2.86.38,4.35.62a40.8,40.8,0,0,0,7.43.44L101.4,154A81,81,0,0,1,96.08,162Zm12.1-3.16a4.17,4.17,0,0,1-1.32,1.7c-2.13,1.68-6,1.89-9.9,1.55A85,85,0,0,0,102,154.4l1.21-2c1.3,0,2.62-.14,4-.28l1.91-.21A12.76,12.76,0,0,1,108.18,158.86Z" fill="#fff"/><path d="M114.17,197.83a7.51,7.51,0,0,1,3.92,1.25l-.1,1c-.5-.86-2-1.29-4-1.53-1.58-.19-3.5-.26-5.54-.34-4.37-.16-9.82-.37-14.8-1.79-4.22-1.21-7-3.32-8.43-6.27a10.83,10.83,0,0,1-.92-5.2,14.2,14.2,0,0,1,1-4.49l.69.31a13.22,13.22,0,0,0-1,4.29,10,10,0,0,0,.84,4.77c1.28,2.75,4,4.72,8,5.87,4.89,1.39,10.28,1.6,14.62,1.76C110.67,197.56,112.59,197.64,114.17,197.83Z" fill="#fff"/><path d="M117,204a11.12,11.12,0,0,0,.75-1.34l-.17,1.82a13.41,13.41,0,0,1-5.65,5h0a19.71,19.71,0,0,1-5.69,1.52c-1.11.17-2.16.33-2.31.67,0,.11-.06.39.4,1.09.94,1.4,3.49,2.11,6.48,2.55,1.76.25,3.68.41,5.5.57l.2,0-.07.75-.19,0c-1.9-.16-3.82-.32-5.58-.58-3.2-.47-5.87-1.24-7-2.87-.53-.8-.67-1.35-.47-1.81.32-.73,1.34-.88,2.89-1.11a18.15,18.15,0,0,0,6-1.69A12.84,12.84,0,0,0,117,204Z" fill="#fff"/><path d="M192.21,221.08c-.38.54-.8,1.08-1.24,1.61-.15.19-.32.38-.49.57-.83,1-1.73,1.89-2.72,2.82a85.19,85.19,0,0,1-9.56,7.61,10.49,10.49,0,0,0-2.54-3.44A114.35,114.35,0,0,0,166,223l-2.16-1.5c3.13-2.34,6.15-4.82,9-7.17,2.17-1.78,4.25-3.49,6.22-5l.63-.49c.22-.18.46-.35.69-.52,1.46-1.1,2.85-2.06,4.15-2.86l-.32-.66c-1.3.78-2.68,1.73-4.13,2.81l-1,.75-.63.49c-1.94,1.5-4,3.17-6.08,4.91-2.91,2.39-6,4.93-9.17,7.29-5.65-4-10.4-7.9-10.37-12.07,0-2.9,2.32-5.84,7-9,.59-.4,1.15-.79,1.68-1.18l.62-.48c4.51-3.48,6.53-6.74,7.35-9.34a9.93,9.93,0,0,0,.48-4,7.2,7.2,0,0,0-4.27-6.08,5.07,5.07,0,0,0-5.35.8l.48.58a4.35,4.35,0,0,1,4.59-.69,6.46,6.46,0,0,1,3.8,5.47,9.41,9.41,0,0,1-.63,4.31h0c-.91,2.41-2.93,5.35-7.07,8.54l-.63.46c-.46.34-1,.68-1.45,1-4.91,3.29-7.3,6.42-7.33,9.59,0,4.48,4.74,8.47,10.47,12.55a66.67,66.67,0,0,1-10.21,6.36c-4.36,2.1-8.67,3.23-12.7,2.59l.41.81c4,.5,8.33-.66,12.62-2.74a67.28,67.28,0,0,0,10.53-6.56c.77.55,1.57,1.1,2.36,1.65a108.21,108.21,0,0,1,9.64,7.24,9.91,9.91,0,0,1,2.43,3.3c-2.35,1.64-4.78,3.26-7.18,4.86-3.2,2.12-6.33,4.21-9.17,6.3a46.83,46.83,0,0,0-9.62,8.73l.38.74c2.16-2.95,5.57-5.86,9.57-8.8,2.86-2.09,6-4.2,9.24-6.34,2.38-1.58,4.77-3.17,7.08-4.79,1.6,4,1.63,9.72,0,16.23a43.62,43.62,0,0,1-6.44,14.13c-2.61,3.65-5.77,6.38-9.13,7.12a9.47,9.47,0,0,1-1.27.18l.37.73a10.21,10.21,0,0,0,1.06-.18c3.53-.78,6.72-3.48,9.37-7.07a43.72,43.72,0,0,0,6.75-14.73c1.72-6.73,1.65-12.65-.07-16.84a88.55,88.55,0,0,0,9.56-7.57,39.39,39.39,0,0,0,2.79-2.87c.18-.19.34-.38.5-.57a19,19,0,0,0,1.22-1.53ZM138,193.44a56.88,56.88,0,0,0-9.7,14.84l.46.92c3.18-8.07,9.69-15.14,9.78-15.24Z" fill="#fff"/><path d="M192.59,221.85l-.38-.77-7.73-15.67-.32-.66c3.15-1.91,5.87-2.82,8-2.05,2,.72,3.27,2.8,4,6.38C197,213.69,195.52,217.9,192.59,221.85Z" fill="none"/><path d="M203.74,280.13a10.21,10.21,0,0,0-1-.33,20.36,20.36,0,0,0-4.87-.69l-.87,0-.81,0a87.63,87.63,0,0,1-11.59-1.38h-.05c.75-1.76,1.58-3.54,2.44-5.3,3.11-6.32,6.71-12.4,9-16.29l.5-.85a13.56,13.56,0,0,0,1.59-4.34h0c.79-4,.33-9.12-1.36-14.87a61,61,0,0,0-5.42-12.6c-.13-.23-.26-.46-.4-.69A54,54,0,0,0,181,210c-.47-.43-.95-.85-1.44-1.25l-.6-.48a29.64,29.64,0,0,0-5.14-3.3,96.87,96.87,0,0,1-11.91-6.72l-.63-.44c-2.72-2-3.14-3.2-3.56-4.34l0,0c-.1-.28-.21-.57-.34-.86l-.68.31c.12.28.23.54.33.82,0,0,0,0,0,0,.46,1.26.91,2.49,3.64,4.54l.62.46a96.3,96.3,0,0,0,12.21,6.91,27.69,27.69,0,0,1,4.84,3.12q.3.22.6.48a36.24,36.24,0,0,1,2.81,2.53h0a54.73,54.73,0,0,1,8.71,11.44c.14.23.27.46.4.69A59.5,59.5,0,0,1,196,236.2a33.37,33.37,0,0,1,1.53,13.35,13.74,13.74,0,0,1-1.68,5.27l-.5.85c-2.56,4.31-6.28,10.58-9.39,17q-1.19,2.42-2.21,4.82c-2.63-.46-4.27-.66-6.11.06h0a7,7,0,0,0-1,.46,30,30,0,0,0-5.7,4.51,18.85,18.85,0,0,0-3.11,3.73l.4.78a18.43,18.43,0,0,1,3.22-4,29.78,29.78,0,0,1,5.51-4.38,6.37,6.37,0,0,1,1-.46c1.62-.61,3.12-.45,5.46,0a60.1,60.1,0,0,0-2.23,6.31c-.2.72-.37,1.42-.53,2.11-.79,3.57-.8,6.67.41,8.83a6.4,6.4,0,0,0,5.16,3.08h0a11.3,11.3,0,0,0,1.34.09h.87a21.23,21.23,0,0,0,2.67-.2l.81-.12c7-1.14,12.82-5.15,15.08-9.32a9.65,9.65,0,0,0,.4-.88h0a6.87,6.87,0,0,0,.58-2.51C208.09,284.24,207.62,281.59,203.74,280.13Zm2.92,8a15.61,15.61,0,0,1-5.88,6.16l-.64.39a23.49,23.49,0,0,1-7.42,2.78l-.58.11-.18,0c-.21,0-.42.07-.64.09a23.56,23.56,0,0,1-3.18.23h-.48a10.41,10.41,0,0,1-1.74-.16,5.47,5.47,0,0,1-4.13-2.63c-1-1.78-1.07-4.33-.52-7.31q.19-1.08.51-2.25a57.1,57.1,0,0,1,2.49-7.18l.22,0a87.23,87.23,0,0,0,9.1,1.22l.36,0,1.94.13.79,0h0l1.17.05a18.63,18.63,0,0,1,5.34.88,7.25,7.25,0,0,1,1,.42h0c2,1,3.13,2.48,3.08,4.4a5.66,5.66,0,0,1-.28,1.57A6.31,6.31,0,0,1,206.66,288.09Z" fill="#fff"/><path d="M226.56,290.48h0a7.68,7.68,0,0,0-.83-1.68c-2.62-4.16-9.49-9.2-15.59-12.64-.62-.35-1.23-.68-1.82-1-1.48-.78-2.89-1.45-4.13-2a4.08,4.08,0,0,0-3.89.3c-1.56,1-2.91,2.94-4.09,5.53-.11.24-.21.49-.32.74-.29.69-.58,1.43-.85,2.2-.12.33-.23.67-.35,1a93.54,93.54,0,0,0-3,12.31c-.07.43-.15.86-.22,1.29s-.11.71-.18,1.06-.08.52-.13.77l-.12.82c-.27,1.7-.5,3.34-.68,4.86l-1.2.6a45.54,45.54,0,0,0-8.89,5.79l.37.72a44.23,44.23,0,0,1,8.86-5.78c.24-.13.48-.26.73-.38-.07.53-.12,1.05-.19,1.54-.43,3.67-.62,6.24-.65,6.61l.75.05c0-.08.16-2.16.52-5.34,0-.05,0-.1,0-.15,0-.39.09-.8.14-1.23.07-.6.15-1.23.23-1.88a100.42,100.42,0,0,1,26.81-8.28h.05c.87-.14,1.72-.26,2.55-.35,3.9-.45,6-1.7,6.3-3.7A3.91,3.91,0,0,0,226.56,290.48Zm-.52,1.73c-.22,1.63-2.12,2.66-5.64,3.06-.9.1-1.84.23-2.8.38a101.15,101.15,0,0,0-26.39,8.05c.19-1.45.43-3,.68-4.62,0-.26.07-.52.11-.78s.05-.32.08-.48,0-.19.06-.29c0-.33.1-.66.16-1A102.25,102.25,0,0,1,195.16,284c.11-.35.23-.7.34-1,.37-1.12.76-2.17,1.18-3.14h0c.1-.25.21-.5.33-.74,1.07-2.32,2.3-4.08,3.68-4.93a3.35,3.35,0,0,1,1.81-.55,3.64,3.64,0,0,1,1.4.3,50.41,50.41,0,0,1,4.86,2.36h0c.58.31,1.17.65,1.77,1C218.2,281.68,226.59,288.32,226,292.21Z" fill="#fff"/><path d="M58.23,237.08c.37-.05.75-.08,1.13-.11,2.42-.18,4.7-.23,6.9-.23,1,0,2,0,2.93,0,9.76.05,18.2.07,29.93-8.39,3.41-2.46,4.9-5,4.44-7.57,0-.19-.08-.38-.14-.57a4.5,4.5,0,0,0-.16-.48c-1.31-3.36-5.78-6.11-10-8.06l-.75-.33a65.56,65.56,0,0,0-8.08-2.9l-.2.72a67.16,67.16,0,0,1,8.28,3l.75.34c3.93,1.82,7.93,4.31,9.23,7.22.07.16.13.31.19.47a4.23,4.23,0,0,1,.18.7c.41,2.26-1,4.56-4.14,6.83C87.15,236.05,78.84,236,69.19,236H66.67c-2.33,0-4.76.05-7.36.24l-.53.05Z" fill="#fff"/><path d="M65.41,304.75c-.79-.67-3.5-1.48-7.21-2.07h0c-1.62-.26-3.44-.47-5.38-.61h0a63.32,63.32,0,0,0-10.91.09,19.61,19.61,0,0,1-3.54-3.46l-.48-.59c-.79-1-1.59-2.09-2.44-3.27-1.27-1.74-2.7-3.71-4.47-5.84l-.11-.13-.1-.12a24,24,0,0,0-4.6-4.3l-.41.6a24.45,24.45,0,0,1,4.44,4.18l.23.28.11.13c1.69,2.05,3.07,3.95,4.3,5.64.73,1,1.41,2,2.09,2.83l.46.59a23.29,23.29,0,0,0,3.41,3.58,32.89,32.89,0,0,0-11.92,3.49c-.5.28-.95.55-1.37.84-2.32,1.57-3.38,3.25-3.14,5A6.49,6.49,0,0,0,27,315.46a.27.27,0,0,1,.08.07,16.86,16.86,0,0,0,1.38,1h0l.13.09c4.63,3,11.87,5.3,15.56,6.34,1.27.36,2.12.57,2.28.61l.17-.73s-1-.24-2.38-.65c-5.46-1.55-18.45-5.76-19.12-10.69-.2-1.48.81-2.95,3-4.38a13,13,0,0,1,1.13-.69,33.25,33.25,0,0,1,12.37-3.52c2.92,2.11,6.8,3.41,13.26,3.8h.26c1.3.07,2.71.11,4.23.11,6,0,6.28-.81,6.41-1.16C65.82,305.49,65.86,305.14,65.41,304.75Zm-6.07,1.33c-1.31,0-2.52,0-3.66-.08h-.23c-6.05-.31-9.81-1.4-12.66-3.2a64.84,64.84,0,0,1,10.71,0c1.49.13,2.9.29,4.19.49a31.11,31.11,0,0,1,6.11,1.45,3.67,3.67,0,0,1,1.25.67C65,305.48,64.37,306.08,59.34,306.08Z" fill="#fff"/><path d="M75.84,247.64c-1.45-.45-2.67-.88-3.75-1.26-4.89-1.71-6.67-2.33-11.75,1.1h0c-1.09.73-2.33,1.65-3.8,2.79l-6,.06-1.32,0-.5.74h1.83l5-.05-2.52,2-3.31,2.71-.28.23-.3.25a72,72,0,0,1-8,6.08h0l-.9,1.32c2.54-1.19,5.43-3.56,9.69-7.07l.36-.33h0l.58-.47c.81-.67,1.67-1.38,2.6-2.13,1.21-1,2.3-1.86,3.28-2.63l1.61,0c14.31-.24,19.21-.77,19.38-2C77.86,248.49,77.3,248.09,75.84,247.64Zm-17,2.6h-1c.63-.49,1.22-.93,1.77-1.33,3.19-2.3,5.07-3.15,7-3.15a16.91,16.91,0,0,1,5.31,1.32c1.09.38,2.32.81,3.78,1.27a4.84,4.84,0,0,1,1.36.57C75.85,249.78,66.7,250.1,58.82,250.24Z" fill="#fff"/><rect x="16.18" y="222.63" width="109.42" height="78.5" fill="#fe4877"/><polygon points="92.06 231.06 91.31 231.06 91.31 208.26 40.74 208.26 40.74 228.92 39.99 228.92 39.99 207.51 92.06 207.51 92.06 231.06" fill="#fe4877"/><path d="M56.6,221.09,60,141.21l6.06-32L93.63,73.34c-.54-5.7,29-6.4,28,2.79-.27,2.62-2.53,11.67-3.84,13.77-3.28,5.24-21.26,27.81-26.62,32.83L88.4,143.85,80.85,192l11.54,14.66L90.93,210,80.74,197.42,79,224.66l-3.6-.08,2-20.93-3.53-.34-1.54,22-2.23.22,1-22.52-3.54-.34L67.31,225,64,223.48l0-21.12-2.85-.28-.94,19.1Z" fill="#ffcb39"/><path d="M82.91,191l-28.19,1.52,4.67-76.39,26.5-45.65a19.78,19.78,0,0,1,27-7.18h0a19.78,19.78,0,0,1,7.18,27L93.55,136.05Z" fill="#161730"/><polygon points="110.36 58.06 102.23 73.47 125.76 75.72 121.96 92.47 146.72 92.79 110.36 58.06" fill="#ffcb39"/><polygon points="16.13 221.97 36.2 258.74 103.69 258.98 125.37 222.5 16.13 221.97" fill="#ffcb39"/><rect x="61.83" y="254.22" width="15.52" height="12.36" fill="#161730"/></svg>