<svg id="Capa_1" data-name="Capa 1" xmlns="http://www.w3.org/2000/svg" viewBox="0 0 348.98 451.39"><title>Mesa de trabajo 59</title><rect x="112.03" y="123.37" width="86.02" height="149.7" rx="17.58" fill="#6562be"/><rect x="265.64" y="77.74" width="3.8" height="352.16" fill="#161730"/><polygon points="164.31 351.4 132.84 354.49 135.56 404.92 163.37 403.28 164.31 351.4" fill="#6562be"/><path d="M165.12,424.4l-73.41-.1h0c-.12-8.61,9.9-11.77,18.47-12.61l25.37-6.94-1-18.16,29.05-1.77Z" fill="#161730"/><path d="M105.22,412.44s7.16,10.72,5.31,11.89-18.82,0-18.82,0S90.33,415.44,105.22,412.44Z" fill="#ffcb39"/><path d="M164.15,385.41s-12.78,5.71-10.84,12.51,4.09,19-1.8,20.51-3.38,5.95-3.38,5.95l17,0Z" fill="#ffcb39"/><rect x="137.87" y="404.42" width="0.75" height="10.3" transform="translate(-272.28 274.21) rotate(-53.1)" fill="#ffcb39"/><rect x="128.54" y="408.26" width="0.75" height="9.85" transform="translate(-264.43 232.58) rotate(-48.01)" fill="#ffcb39"/><rect x="118.51" y="409.02" width="0.75" height="8.96" transform="translate(-240.85 177.47) rotate(-40.69)" fill="#ffcb39"/><rect x="148.8" y="367.99" width="18.79" height="0.75" transform="translate(-213.39 518.85) rotate(-88.81)" fill="#ffcb39"/><polygon points="149.85 378.28 149.1 378.27 149.38 361.72 150.13 361.73 149.85 378.28" fill="#ffcb39"/><rect x="131.64" y="371.26" width="18.79" height="0.75" transform="translate(-233.46 504.9) rotate(-88.81)" fill="#ffcb39"/><path d="M129.5,358.08l40.23-.62s8.65-11.46,2-24.85-1.14-24.75,2.26-36.1,5.28-23.95-.68-34.25-1.57-23.6.44-31.49-1.71-21.83-1.71-21.83l-50.34,15.75s-3.55,48.91,1.72,58.51,4.42,31.52,3.57,41.07S121.74,347,129.5,358.08Z" fill="#161730"/><polygon points="123.47 135.63 98.85 152.2 32.93 40.65 36.03 38.81 46.25 55 48.59 53.36 38.24 34.91 40.39 32.02 51.54 51.3 54.45 49.27 42.49 30.13 44.54 29.23 56.72 47.69 59.63 45.66 47.59 28.39 50.69 26.55 65.63 49.43 68.35 33.47 71.24 35.62 68.38 54.09 123.47 135.63" fill="#fd925a"/><path d="M77.86,54.34h33.49a0,0,0,0,1,0,0V161A16.74,16.74,0,0,1,94.61,177.7h0A16.74,16.74,0,0,1,77.86,161V54.34a0,0,0,0,1,0,0Z" transform="translate(-46.79 66.83) rotate(-31.62)" fill="#fe4877"/><polygon points="102.88 354.96 71.62 350.2 61.84 399.75 89.2 405.01 102.88 354.96" fill="#6562be"/><path d="M85.7,425.91,14.57,407.74h0c2-8.37,12.49-9,21-7.68l26.31-.48,3.46-17.85,28.59,5.44Z" fill="#161730"/><path d="M30.59,399.57s4.3,12.15,2.21,12.83-18.23-4.66-18.23-4.66S15.41,398.81,30.59,399.57Z" fill="#ffcb39"/><path d="M94.36,387.89s-13.8,2.38-13.59,9.44-.71,19.41-6.79,19.44-4.75,4.93-4.75,4.93l16.47,4.21Z" fill="#ffcb39"/><rect x="62.93" y="399.77" width="0.75" height="10.3" transform="translate(-239.72 128.98) rotate(-38.79)" fill="#ffcb39"/><polygon points="56.41 410.01 55.79 410.43 50.32 402.24 50.94 401.82 56.41 410.01" fill="#ffcb39"/><polygon points="45.9 407.81 45.23 408.14 41.24 400.12 41.91 399.78 45.9 407.81" fill="#ffcb39"/><rect x="83.38" y="369.52" width="18.79" height="0.75" transform="translate(-288.47 361.03) rotate(-74.59)" fill="#ffcb39"/><rect x="75.78" y="368.99" width="16.55" height="0.75" transform="translate(-294.42 353.61) rotate(-74.79)" fill="#ffcb39"/><rect x="65.95" y="368.47" width="18.79" height="0.75" transform="translate(-300.26 343.46) rotate(-74.59)" fill="#ffcb39"/><polygon points="255.24 279.63 252.33 281.77 241.14 263.94 238.14 265.82 250.36 284.24 248.74 285.78 235.8 267.29 232.79 269.17 246.17 286.97 242.67 287.82 229.74 271.09 227.32 272.61 238.23 288.33 235.32 290.47 158.38 186.2 183.26 170.01 236.8 252.59 254.91 257.16 255.76 260.67 240.01 256.93 255.24 279.63" fill="#fd925a"/><path d="M183.7,135.65h0a16.74,16.74,0,0,1,16.74,16.74V259a0,0,0,0,1,0,0H167a0,0,0,0,1,0,0V152.4A16.74,16.74,0,0,1,183.7,135.65Z" transform="translate(-80.33 142.8) rotate(-35.38)" fill="#fe4877"/><path d="M67.5,352.86l39.14,9.3s11.21-9,8.08-23.58,5-24.27,11.08-34.43,11-21.92,7.77-33.37,4.29-23.26,8.18-30.41,3.72-21.57,3.72-21.57L92.8,221.66S77.32,268.19,80.06,278.8s-3.48,31.64-6.64,40.68S62.7,340.22,67.5,352.86Z" fill="#161730"/><path d="M127.15,132.26a15.08,15.08,0,0,0-1.73.44c-11.42,3.52-19.23,22.36-23.85,35.11-2.61,7.2-13,68.46-13,68.46l88.58.74c1.27,0-1.17-39.34-1.46-42.08-2.23-21.83-7.52-50.24-24.57-59C144.89,132.74,134.44,130.77,127.15,132.26Z" fill="#fe4877"/><polygon points="91.72 424.3 91.72 430.12 101.26 430.12 165.13 430.12 165.13 424.4 91.72 424.3" fill="#fe4877"/><polygon points="14.86 407.61 13.44 413.25 22.7 415.57 84.67 431.05 86.05 425.5 14.86 407.61" fill="#fe4877"/><polygon points="301.34 14.76 238.49 14.76 207.07 69.19 238.49 123.62 301.34 123.62 332.77 69.19 301.34 14.76" fill="#fe4877"/><polygon points="297.9 20.71 241.93 20.71 213.94 69.19 241.93 117.66 297.9 117.66 325.89 69.19 297.9 20.71" fill="#ffcb39"/><polygon points="279.54 315.83 275.54 315.83 275.54 305.24 222.51 305.24 222.51 314.88 218.51 314.88 218.51 301.24 279.54 301.24 279.54 315.83" fill="#ffcb39"/><rect x="188.09" y="301.34" width="120.24" height="142.57" rx="12.59" transform="translate(620.84 124.41) rotate(90)" fill="#6562be"/><rect x="241.98" y="267.3" width="12.48" height="142.57" transform="translate(586.8 90.37) rotate(90)" fill="#ffcb39"/><rect x="241.98" y="335.3" width="12.48" height="142.57" transform="translate(654.8 158.37) rotate(90)" fill="#ffcb39"/><rect x="274.11" y="347.91" width="20.2" height="29.23" transform="translate(646.74 78.31) rotate(90)" fill="#ffcb39"/><rect x="283.14" y="362.17" width="17.35" height="26.38" transform="translate(350.89 -96.41) rotate(45)" fill="#fe4877"/><rect x="195.46" y="318.45" width="13.31" height="32.32" transform="translate(476.12 55.8) rotate(75.64)" fill="#fe4877"/><rect x="200.33" y="299.79" width="4.75" height="25.9" transform="translate(515.45 110.03) rotate(90)" fill="#ffcc1e"/><rect x="293.54" y="299.72" width="4.75" height="25.9" transform="translate(608.59 16.76) rotate(90)" fill="#ffcc1e"/><path d="M176.35,242.69c-45.91-81.31-16.95-107-15.7-108l2.57,3.06-1.28-1.53,1.29,1.52c-.07.06-6.93,6.13-8.38,21.64-1.36,14.52,1.87,40.43,25,81.36Z" fill="#6562be"/><path d="M129.37,129.26a82.46,82.46,0,0,0-7.82,7.32,105.92,105.92,0,0,0-7,8.21,100.45,100.45,0,0,0-11.24,18.44,95.23,95.23,0,0,0-6.81,20.54,116.05,116.05,0,0,0-2.25,21.8l-.45,0a76.39,76.39,0,0,1-.37-22.35,85.5,85.5,0,0,1,2.3-11.06,94.43,94.43,0,0,1,3.81-10.65A91.18,91.18,0,0,1,111,142.09a87.3,87.3,0,0,1,7.42-8.54A71.7,71.7,0,0,1,127,126Z" fill="#6562be"/><path d="M161.58,101.59a2,2,0,0,1-.1.21c-.91,1.57-3.54,1.26-5,1.73-2,.63-4,1.23-5.92,1.87-.74.23-7.43,1.74-7.58,2.44l-2.22,9.5c-.91,3.91-.93,7.58-3.09,11l-.39.58c-3.7,5.25-11.4,9.6-17.64,10.81-3,.59-6.17.13-9.22.72-7.55,1.48-14.8,5-21.65,8.45-.83.41-11.32,5.13-11.32,6l-1-5.62,19-11.45-19.34,9.75L73,129.85l21.72-8.16-22.16,5.66-2.19-12.28,24.35-4.8-25.12.46L67.63,100a207.39,207.39,0,0,0,22.25,2c6.37.2,14.83,1.71,21.1.27,2.87-.66,5.13-2.5,7.3-4.39A29.79,29.79,0,0,1,138,91a36.1,36.1,0,0,1,10.23,1.42A48.09,48.09,0,0,1,156,95.22C157.74,96.12,162.83,98.86,161.58,101.59Z" fill="#ffcb39"/><path d="M157.61,120.59A10.39,10.39,0,0,1,147.26,131l-.59.09c0,.64,0,1.29,0,1.93,0,1.55,0,3.1,0,4.65,0,1,.41,2.13-.18,3a5.86,5.86,0,0,1-2.44,1.75c-2.52,1.12-8.15,1.11-8.17-2.86l-.05-13L134.43,105l23.11-.1Z" fill="#fd925a"/><path d="M157,109.55c1.49,0,4.89,9.67,4.89,9.67l-4.85,0Z" fill="#ff534a"/><circle cx="147.72" cy="118.17" r="3.73" fill="#ff534a"/><path d="M150.08,110.77a.76.76,0,0,1,.11-.14,1.49,1.49,0,0,1,.73-.31c1.17-.25,4.15-1,4.59.73.35,1.37-1.58,1.17-2.6,1.13S149.38,112,150.08,110.77Z" fill="#fff"/><path d="M153.58,110s-1.18.82,0,2.27c0,0,2.3.32,1.92-1.17A1.55,1.55,0,0,0,153.58,110Z" fill="#0c0604"/><path d="M149.18,110.33s6.33-.77,6.33-1.14.36-1.87-.76-1.86-6.7,1.89-6.32,2.26S148.43,110,149.18,110.33Z" fill="#161730"/><path d="M155.66,124.27a2.76,2.76,0,0,1-2.25-1.06l.59-.46c1.11,1.41,3.06.45,3.08.44l.34.67A4,4,0,0,1,155.66,124.27Z" fill="#33270a"/><path d="M164,107.72l-19.57,1.86-.23-1.33c-1.92,10.67.2,22.05.2,22.05-3-4-3.11-14.9-3-20.39l-7.11,1-1.13-8.86c-.45-9.75,8.1-6.76,20.79-8.27S164,107.72,164,107.72Z" fill="#ffcb39"/><rect x="143.66" y="104.89" width="23.59" height="10.33" rx="3.71" fill="#161730"/><rect x="146.83" y="105.73" width="19.76" height="8.65" rx="3.11" fill="#fe4877"/><polygon points="153.3 105.73 151.99 107.74 153.71 107.51 150.45 114.39 153.06 114.44 155.88 106.76 154.31 106.94 155 105.73 153.3 105.73" fill="#fff"/><polygon points="160.29 105.73 158.02 111.07 159.16 110.55 157.84 114.39 160.56 114.39 161.88 109.21 160.25 109.9 161.88 105.73 160.29 105.73" fill="#fff"/><circle cx="137.03" cy="112.21" r="4.28" fill="#fd925a"/><path d="M138.71,114.3l-.74-.08a2.34,2.34,0,0,0-.5-2,2.28,2.28,0,0,0-1.69-.51l-.1-.74a3.12,3.12,0,0,1,2,.44,1.86,1.86,0,0,0,.07-1.33.49.49,0,0,0-.26-.29l.24-.72a1.3,1.3,0,0,1,.7.67,2.86,2.86,0,0,1-.17,2.22A3.26,3.26,0,0,1,138.71,114.3Z" fill="#0c0604"/><path d="M162.24,99.18l-37.72-1.07A2.65,2.65,0,0,1,122,95.76l-.21-1.86a2.65,2.65,0,0,1,2.83-3l.82.06c-.41-3-1.72-9.75-5.19-11.14-4.49-1.8-6.13-9.68,1.26-7.1s28.92.81,29.49,6.86c.56,5.88,14.48.13,9.85,14.12l1.71.13.33,0a2.66,2.66,0,0,1-.61,5.26Z" fill="#fb9159"/><circle cx="111.93" cy="70.57" r="2.84" fill="#fb9159"/><path d="M110.69,279.8a13.77,13.77,0,0,1-6.3-2C98,274.2,91.68,267,92.06,260.1c.11-2.16.67-3.57,1.7-4.29,1.73-1.2,4.44-.38,7.88.67a42.56,42.56,0,0,0,7.58,1.79c-1.77-3.47-4.33-5.88-8.28-6.33l.09-.75c4.44.51,7.21,3.26,9.09,7.17,4.52.35,9.44-.72,14.12-5.63,2.52-2.64,3.39-4.81,2.59-6.45-3.24-6.64-31.23-4-31.51-4l-.07-.74c1.17-.12,28.79-2.73,32.25,4.38.95,2,0,4.41-2.72,7.3-4.76,5-9.72,6.16-14.3,5.9,1.92,4.45,2.82,10.21,3.71,15.88.38,2.47-.45,3.63-1.21,4.16A4,4,0,0,1,110.69,279.8ZM95.94,256a3,3,0,0,0-1.75.47c-.83.58-1.28,1.79-1.38,3.71-.36,6.58,5.74,13.52,12,17,3.39,1.89,6.38,2.45,7.79,1.45.86-.59,1.16-1.75.9-3.42-.91-5.78-1.83-11.66-3.84-16.07a42.64,42.64,0,0,1-8.19-1.88A21.36,21.36,0,0,0,95.94,256Z" fill="#fff"/><path d="M73.19,326.9C71.91,323.28,79,320.05,88,316c7.11-3.22,15.16-6.87,19.83-11.21,1.83-1.71,2.56-3.51,2.18-5.38-1.43-7.09-17.93-13.19-18.09-13.25l.25-.7c.7.25,17.06,6.3,18.58,13.8.43,2.14-.38,4.18-2.41,6.07-4.76,4.43-12.87,8.11-20,11.35-8,3.61-15.5,7-14.45,10Z" fill="#fff"/><path d="M100.19,356.59c-3.45,0-9-2-14.83-4.1a89.14,89.14,0,0,0-10.12-3.25c-1.67-.36-2.4-.78-2.43-1.41-.07-1.24,2.94-2.28,9.74-4.52,2.28-.75,4.82-1.59,7.44-2.53-2-1-3.48-1.87-3.64-3.23s1.1-3,4.07-5.37c3.92-3.09,9-8.54,13.92-14.65-6.18-7.31-15.9-13.88-16-14l.42-.62c.58.39,10,6.74,16.12,14,10.07-12.48,19.74-27.44,19.3-30.73l.74-.1c.51,3.77-9.42,18.92-19.56,31.41,2.77,3.39,4.77,6.94,4.78,10.14a7.26,7.26,0,0,1-3.56,6.21,69,69,0,0,1-14.61,7c3.64,1.74,8.34,4.19,10.82,9.62,1.13,2.48,1.24,4.16.32,5.16A3.79,3.79,0,0,1,100.19,356.59Zm-9.25-15.35c-2.87,1-5.67,2-8.16,2.78-4.12,1.36-9.26,3.05-9.22,3.77,0,0,.1.34,1.84.72a88.23,88.23,0,0,1,10.22,3.28c7,2.53,15,5.41,16.9,3.36.68-.74.53-2.2-.45-4.34-2.5-5.46-7.42-7.81-11-9.52Zm13.88-23.13c-5.06,6.19-10.13,11.66-13.94,14.66-2.7,2.13-3.9,3.62-3.78,4.69s1.76,2,3.88,3c5.36-1.95,10.94-4.32,15.14-7.2a6.57,6.57,0,0,0,3.23-5.58C109.34,324.68,107.46,321.34,104.82,318.11Z" fill="#fff"/><path d="M160.39,313.8a15.75,15.75,0,0,1-2.43-.2c-4.22-.66-7.25-2.44-9-5.29-3.33-5.45-1.77-14.12,1-23.4a51.61,51.61,0,0,0-11.3-6.26c-11-4.38-16.58-8.14-16.53-11.17,0-1.9,2.19-2.69,2.28-2.72l.26.7s-1.77.66-1.79,2,2,4.89,16.06,10.46a51.9,51.9,0,0,1,11.24,6.21c.85-2.86,1.81-5.78,2.76-8.67.65-2,1.3-3.95,1.9-5.86l.71.23c-.6,1.91-1.24,3.88-1.9,5.86-1,3-2,6-2.83,8.91,11.07,8.28,17.39,19.59,15.84,25.24C166.2,311.44,164.82,313.8,160.39,313.8Zm-9.82-28.42c-2.63,9-4.12,17.38-1,22.54,1.65,2.69,4.41,4.3,8.46,4.94,4.37.68,7.08-.42,7.84-3.18C167.39,304.26,161.27,293.42,150.57,285.38Z" fill="#fff"/><path d="M141.69,265.31a2,2,0,0,1-1.5-.46c-.81-.83-.21-2.46,1.85-5a84.73,84.73,0,0,1,12-11.66c-3.21.07-6.34.29-8.27.43-3.41.23-3.41.23-3.52-.15l-.08-.3.32-.18.15.3.1-.27c.21,0,1.56-.05,3-.15,3.24-.23,6.43-.41,9.28-.44,4-3.16,7-5.08,7.06-5.12l.4.63c-.05,0-2.65,1.7-6.24,4.48,5.26,0,9.17.59,9.86,2.38.44,1.13-.39,2.49-2.52,4.17C156.31,259.74,145.88,265.31,141.69,265.31Zm13.6-17.1a85.11,85.11,0,0,0-12.67,12.15c-2.44,3-2.07,3.79-1.89,4,1.56,1.6,13.13-3.61,22.4-10.91,1.79-1.41,2.57-2.55,2.28-3.3C164.81,248.53,160.12,248.17,155.29,248.21Z" fill="#fff"/><path d="M158.23,354.57c-1,0-2.94-.8-7.17-3.23-7.66-4.4-11.55-10.06-10.67-15.53a10,10,0,0,1,1.41-3.7c-1.76-2.18-3.6-4.49-5.47-6.89a17.56,17.56,0,0,1-3.58-14.41c3.4-19.09,34-38.34,34.33-38.53l.4.63c-.31.19-30.65,19.27-34,38a16.87,16.87,0,0,0,3.43,13.82c1.82,2.33,3.61,4.58,5.32,6.71a13.58,13.58,0,0,1,8.21-5.07c7.54-1.55,9.49,3.87,11.38,9.12a26.84,26.84,0,0,0,2.91,6.36l-.62.43a27.84,27.84,0,0,1-3-6.53c-1.86-5.18-3.62-10.07-10.51-8.64a12.71,12.71,0,0,0-7.88,4.93c2.33,2.88,4.51,5.53,6.44,7.87,8,9.76,10.78,13.19,9.81,14.33A.88.88,0,0,1,158.23,354.57ZM142.3,332.73a9.09,9.09,0,0,0-1.17,3.2c-.82,5.14,2.93,10.52,10.3,14.76,5.9,3.39,6.83,3.23,7,3.1.53-.82-4.5-6.92-9.82-13.37C146.71,338.13,144.57,335.54,142.3,332.73Z" fill="#fff"/></svg>